<?xml version="1.0" encoding="utf-8" standalone="no"?>
<!DOCTYPE svg PUBLIC "-//W3C//DTD SVG 1.1//EN"
  "http://www.w3.org/Graphics/SVG/1.1/DTD/svg11.dtd">
<svg xmlns:xlink="http://www.w3.org/1999/xlink" width="460.8pt" height="345.6pt" viewBox="0 0 460.8 345.6" xmlns="http://www.w3.org/2000/svg" version="1.1">
 <metadata>
  <rdf:RDF xmlns:dc="http://purl.org/dc/elements/1.1/" xmlns:cc="http://creativecommons.org/ns#" xmlns:rdf="http://www.w3.org/1999/02/22-rdf-syntax-ns#">
   <cc:Work>
    <dc:type rdf:resource="http://purl.org/dc/dcmitype/StillImage"/>
    <dc:date>2023-07-12T05:32:18.201830</dc:date>
    <dc:format>image/svg+xml</dc:format>
    <dc:creator>
     <cc:Agent>
      <dc:title>Matplotlib v3.7.1, https://matplotlib.org/</dc:title>
     </cc:Agent>
    </dc:creator>
   </cc:Work>
  </rdf:RDF>
 </metadata>
 <defs>
  <style type="text/css">*{stroke-linejoin: round; stroke-linecap: butt}</style>
 </defs>
 <g id="figure_1">
  <g id="patch_1">
   <path d="M 0 345.6 
L 460.8 345.6 
L 460.8 0 
L 0 0 
z
" style="fill: #ffffff"/>
  </g>
  <g id="axes_1">
   <g id="patch_2">
    <path d="M 57.6 307.584 
L 414.72 307.584 
L 414.72 41.472 
L 57.6 41.472 
z
" style="fill: #ffffff"/>
   </g>
   <g id="matplotlib.axis_1">
    <g id="xtick_1">
     <g id="line2d_1">
      <path d="M 73.832727 307.584 
L 73.832727 41.472 
" clip-path="url(#p537e6fdafe)" style="fill: none; stroke: #b0b0b0; stroke-linecap: square"/>
     </g>
     <g id="line2d_2">
      <defs>
       <path id="m8f1876c7f5" d="M 0 0 
L 0 3.5 
" style="stroke: #000000; stroke-width: 0.8"/>
      </defs>
      <g>
       <use xlink:href="#m8f1876c7f5" x="73.832727" y="307.584" style="stroke: #000000; stroke-width: 0.8"/>
      </g>
     </g>
     <g id="text_1">
      <!-- $\mathdefault{10^{-7}}$ -->
      <g transform="translate(62.082727 322.182437) scale(0.1 -0.1)">
       <defs>
        <path id="DejaVuSans-31" d="M 794 531 
L 1825 531 
L 1825 4091 
L 703 3866 
L 703 4441 
L 1819 4666 
L 2450 4666 
L 2450 531 
L 3481 531 
L 3481 0 
L 794 0 
L 794 531 
z
" transform="scale(0.015625)"/>
        <path id="DejaVuSans-30" d="M 2034 4250 
Q 1547 4250 1301 3770 
Q 1056 3291 1056 2328 
Q 1056 1369 1301 889 
Q 1547 409 2034 409 
Q 2525 409 2770 889 
Q 3016 1369 3016 2328 
Q 3016 3291 2770 3770 
Q 2525 4250 2034 4250 
z
M 2034 4750 
Q 2819 4750 3233 4129 
Q 3647 3509 3647 2328 
Q 3647 1150 3233 529 
Q 2819 -91 2034 -91 
Q 1250 -91 836 529 
Q 422 1150 422 2328 
Q 422 3509 836 4129 
Q 1250 4750 2034 4750 
z
" transform="scale(0.015625)"/>
        <path id="DejaVuSans-2212" d="M 678 2272 
L 4684 2272 
L 4684 1741 
L 678 1741 
L 678 2272 
z
" transform="scale(0.015625)"/>
        <path id="DejaVuSans-37" d="M 525 4666 
L 3525 4666 
L 3525 4397 
L 1831 0 
L 1172 0 
L 2766 4134 
L 525 4134 
L 525 4666 
z
" transform="scale(0.015625)"/>
       </defs>
       <use xlink:href="#DejaVuSans-31" transform="translate(0 0.684375)"/>
       <use xlink:href="#DejaVuSans-30" transform="translate(63.623047 0.684375)"/>
       <use xlink:href="#DejaVuSans-2212" transform="translate(128.203125 38.965625) scale(0.7)"/>
       <use xlink:href="#DejaVuSans-37" transform="translate(186.855469 38.965625) scale(0.7)"/>
      </g>
     </g>
    </g>
    <g id="xtick_2">
     <g id="line2d_3">
      <path d="M 120.211948 307.584 
L 120.211948 41.472 
" clip-path="url(#p537e6fdafe)" style="fill: none; stroke: #b0b0b0; stroke-linecap: square"/>
     </g>
     <g id="line2d_4">
      <g>
       <use xlink:href="#m8f1876c7f5" x="120.211948" y="307.584" style="stroke: #000000; stroke-width: 0.8"/>
      </g>
     </g>
     <g id="text_2">
      <!-- $\mathdefault{10^{-6}}$ -->
      <g transform="translate(108.461948 322.182437) scale(0.1 -0.1)">
       <defs>
        <path id="DejaVuSans-36" d="M 2113 2584 
Q 1688 2584 1439 2293 
Q 1191 2003 1191 1497 
Q 1191 994 1439 701 
Q 1688 409 2113 409 
Q 2538 409 2786 701 
Q 3034 994 3034 1497 
Q 3034 2003 2786 2293 
Q 2538 2584 2113 2584 
z
M 3366 4563 
L 3366 3988 
Q 3128 4100 2886 4159 
Q 2644 4219 2406 4219 
Q 1781 4219 1451 3797 
Q 1122 3375 1075 2522 
Q 1259 2794 1537 2939 
Q 1816 3084 2150 3084 
Q 2853 3084 3261 2657 
Q 3669 2231 3669 1497 
Q 3669 778 3244 343 
Q 2819 -91 2113 -91 
Q 1303 -91 875 529 
Q 447 1150 447 2328 
Q 447 3434 972 4092 
Q 1497 4750 2381 4750 
Q 2619 4750 2861 4703 
Q 3103 4656 3366 4563 
z
" transform="scale(0.015625)"/>
       </defs>
       <use xlink:href="#DejaVuSans-31" transform="translate(0 0.765625)"/>
       <use xlink:href="#DejaVuSans-30" transform="translate(63.623047 0.765625)"/>
       <use xlink:href="#DejaVuSans-2212" transform="translate(128.203125 39.046875) scale(0.7)"/>
       <use xlink:href="#DejaVuSans-36" transform="translate(186.855469 39.046875) scale(0.7)"/>
      </g>
     </g>
    </g>
    <g id="xtick_3">
     <g id="line2d_5">
      <path d="M 166.591169 307.584 
L 166.591169 41.472 
" clip-path="url(#p537e6fdafe)" style="fill: none; stroke: #b0b0b0; stroke-linecap: square"/>
     </g>
     <g id="line2d_6">
      <g>
       <use xlink:href="#m8f1876c7f5" x="166.591169" y="307.584" style="stroke: #000000; stroke-width: 0.8"/>
      </g>
     </g>
     <g id="text_3">
      <!-- $\mathdefault{10^{-5}}$ -->
      <g transform="translate(154.841169 322.182437) scale(0.1 -0.1)">
       <defs>
        <path id="DejaVuSans-35" d="M 691 4666 
L 3169 4666 
L 3169 4134 
L 1269 4134 
L 1269 2991 
Q 1406 3038 1543 3061 
Q 1681 3084 1819 3084 
Q 2600 3084 3056 2656 
Q 3513 2228 3513 1497 
Q 3513 744 3044 326 
Q 2575 -91 1722 -91 
Q 1428 -91 1123 -41 
Q 819 9 494 109 
L 494 744 
Q 775 591 1075 516 
Q 1375 441 1709 441 
Q 2250 441 2565 725 
Q 2881 1009 2881 1497 
Q 2881 1984 2565 2268 
Q 2250 2553 1709 2553 
Q 1456 2553 1204 2497 
Q 953 2441 691 2322 
L 691 4666 
z
" transform="scale(0.015625)"/>
       </defs>
       <use xlink:href="#DejaVuSans-31" transform="translate(0 0.684375)"/>
       <use xlink:href="#DejaVuSans-30" transform="translate(63.623047 0.684375)"/>
       <use xlink:href="#DejaVuSans-2212" transform="translate(128.203125 38.965625) scale(0.7)"/>
       <use xlink:href="#DejaVuSans-35" transform="translate(186.855469 38.965625) scale(0.7)"/>
      </g>
     </g>
    </g>
    <g id="xtick_4">
     <g id="line2d_7">
      <path d="M 212.97039 307.584 
L 212.97039 41.472 
" clip-path="url(#p537e6fdafe)" style="fill: none; stroke: #b0b0b0; stroke-linecap: square"/>
     </g>
     <g id="line2d_8">
      <g>
       <use xlink:href="#m8f1876c7f5" x="212.97039" y="307.584" style="stroke: #000000; stroke-width: 0.8"/>
      </g>
     </g>
     <g id="text_4">
      <!-- $\mathdefault{10^{-4}}$ -->
      <g transform="translate(201.22039 322.182437) scale(0.1 -0.1)">
       <defs>
        <path id="DejaVuSans-34" d="M 2419 4116 
L 825 1625 
L 2419 1625 
L 2419 4116 
z
M 2253 4666 
L 3047 4666 
L 3047 1625 
L 3713 1625 
L 3713 1100 
L 3047 1100 
L 3047 0 
L 2419 0 
L 2419 1100 
L 313 1100 
L 313 1709 
L 2253 4666 
z
" transform="scale(0.015625)"/>
       </defs>
       <use xlink:href="#DejaVuSans-31" transform="translate(0 0.684375)"/>
       <use xlink:href="#DejaVuSans-30" transform="translate(63.623047 0.684375)"/>
       <use xlink:href="#DejaVuSans-2212" transform="translate(128.203125 38.965625) scale(0.7)"/>
       <use xlink:href="#DejaVuSans-34" transform="translate(186.855469 38.965625) scale(0.7)"/>
      </g>
     </g>
    </g>
    <g id="xtick_5">
     <g id="line2d_9">
      <path d="M 259.34961 307.584 
L 259.34961 41.472 
" clip-path="url(#p537e6fdafe)" style="fill: none; stroke: #b0b0b0; stroke-linecap: square"/>
     </g>
     <g id="line2d_10">
      <g>
       <use xlink:href="#m8f1876c7f5" x="259.34961" y="307.584" style="stroke: #000000; stroke-width: 0.8"/>
      </g>
     </g>
     <g id="text_5">
      <!-- $\mathdefault{10^{-3}}$ -->
      <g transform="translate(247.59961 322.182437) scale(0.1 -0.1)">
       <defs>
        <path id="DejaVuSans-33" d="M 2597 2516 
Q 3050 2419 3304 2112 
Q 3559 1806 3559 1356 
Q 3559 666 3084 287 
Q 2609 -91 1734 -91 
Q 1441 -91 1130 -33 
Q 819 25 488 141 
L 488 750 
Q 750 597 1062 519 
Q 1375 441 1716 441 
Q 2309 441 2620 675 
Q 2931 909 2931 1356 
Q 2931 1769 2642 2001 
Q 2353 2234 1838 2234 
L 1294 2234 
L 1294 2753 
L 1863 2753 
Q 2328 2753 2575 2939 
Q 2822 3125 2822 3475 
Q 2822 3834 2567 4026 
Q 2313 4219 1838 4219 
Q 1578 4219 1281 4162 
Q 984 4106 628 3988 
L 628 4550 
Q 988 4650 1302 4700 
Q 1616 4750 1894 4750 
Q 2613 4750 3031 4423 
Q 3450 4097 3450 3541 
Q 3450 3153 3228 2886 
Q 3006 2619 2597 2516 
z
" transform="scale(0.015625)"/>
       </defs>
       <use xlink:href="#DejaVuSans-31" transform="translate(0 0.765625)"/>
       <use xlink:href="#DejaVuSans-30" transform="translate(63.623047 0.765625)"/>
       <use xlink:href="#DejaVuSans-2212" transform="translate(128.203125 39.046875) scale(0.7)"/>
       <use xlink:href="#DejaVuSans-33" transform="translate(186.855469 39.046875) scale(0.7)"/>
      </g>
     </g>
    </g>
    <g id="xtick_6">
     <g id="line2d_11">
      <path d="M 305.728831 307.584 
L 305.728831 41.472 
" clip-path="url(#p537e6fdafe)" style="fill: none; stroke: #b0b0b0; stroke-linecap: square"/>
     </g>
     <g id="line2d_12">
      <g>
       <use xlink:href="#m8f1876c7f5" x="305.728831" y="307.584" style="stroke: #000000; stroke-width: 0.8"/>
      </g>
     </g>
     <g id="text_6">
      <!-- $\mathdefault{10^{-2}}$ -->
      <g transform="translate(293.978831 322.182437) scale(0.1 -0.1)">
       <defs>
        <path id="DejaVuSans-32" d="M 1228 531 
L 3431 531 
L 3431 0 
L 469 0 
L 469 531 
Q 828 903 1448 1529 
Q 2069 2156 2228 2338 
Q 2531 2678 2651 2914 
Q 2772 3150 2772 3378 
Q 2772 3750 2511 3984 
Q 2250 4219 1831 4219 
Q 1534 4219 1204 4116 
Q 875 4013 500 3803 
L 500 4441 
Q 881 4594 1212 4672 
Q 1544 4750 1819 4750 
Q 2544 4750 2975 4387 
Q 3406 4025 3406 3419 
Q 3406 3131 3298 2873 
Q 3191 2616 2906 2266 
Q 2828 2175 2409 1742 
Q 1991 1309 1228 531 
z
" transform="scale(0.015625)"/>
       </defs>
       <use xlink:href="#DejaVuSans-31" transform="translate(0 0.765625)"/>
       <use xlink:href="#DejaVuSans-30" transform="translate(63.623047 0.765625)"/>
       <use xlink:href="#DejaVuSans-2212" transform="translate(128.203125 39.046875) scale(0.7)"/>
       <use xlink:href="#DejaVuSans-32" transform="translate(186.855469 39.046875) scale(0.7)"/>
      </g>
     </g>
    </g>
    <g id="xtick_7">
     <g id="line2d_13">
      <path d="M 352.108052 307.584 
L 352.108052 41.472 
" clip-path="url(#p537e6fdafe)" style="fill: none; stroke: #b0b0b0; stroke-linecap: square"/>
     </g>
     <g id="line2d_14">
      <g>
       <use xlink:href="#m8f1876c7f5" x="352.108052" y="307.584" style="stroke: #000000; stroke-width: 0.8"/>
      </g>
     </g>
     <g id="text_7">
      <!-- $\mathdefault{10^{-1}}$ -->
      <g transform="translate(340.358052 322.182437) scale(0.1 -0.1)">
       <use xlink:href="#DejaVuSans-31" transform="translate(0 0.684375)"/>
       <use xlink:href="#DejaVuSans-30" transform="translate(63.623047 0.684375)"/>
       <use xlink:href="#DejaVuSans-2212" transform="translate(128.203125 38.965625) scale(0.7)"/>
       <use xlink:href="#DejaVuSans-31" transform="translate(186.855469 38.965625) scale(0.7)"/>
      </g>
     </g>
    </g>
    <g id="xtick_8">
     <g id="line2d_15">
      <path d="M 398.487273 307.584 
L 398.487273 41.472 
" clip-path="url(#p537e6fdafe)" style="fill: none; stroke: #b0b0b0; stroke-linecap: square"/>
     </g>
     <g id="line2d_16">
      <g>
       <use xlink:href="#m8f1876c7f5" x="398.487273" y="307.584" style="stroke: #000000; stroke-width: 0.8"/>
      </g>
     </g>
     <g id="text_8">
      <!-- $\mathdefault{10^{0}}$ -->
      <g transform="translate(389.687273 322.182437) scale(0.1 -0.1)">
       <use xlink:href="#DejaVuSans-31" transform="translate(0 0.765625)"/>
       <use xlink:href="#DejaVuSans-30" transform="translate(63.623047 0.765625)"/>
       <use xlink:href="#DejaVuSans-30" transform="translate(128.203125 39.046875) scale(0.7)"/>
      </g>
     </g>
    </g>
    <g id="xtick_9">
     <g id="line2d_17">
      <defs>
       <path id="mb7b1047b32" d="M 0 0 
L 0 2 
" style="stroke: #000000; stroke-width: 0.6"/>
      </defs>
      <g>
       <use xlink:href="#mb7b1047b32" x="59.871191" y="307.584" style="stroke: #000000; stroke-width: 0.6"/>
      </g>
     </g>
    </g>
    <g id="xtick_10">
     <g id="line2d_18">
      <g>
       <use xlink:href="#mb7b1047b32" x="63.543555" y="307.584" style="stroke: #000000; stroke-width: 0.6"/>
      </g>
     </g>
    </g>
    <g id="xtick_11">
     <g id="line2d_19">
      <g>
       <use xlink:href="#mb7b1047b32" x="66.648495" y="307.584" style="stroke: #000000; stroke-width: 0.6"/>
      </g>
     </g>
    </g>
    <g id="xtick_12">
     <g id="line2d_20">
      <g>
       <use xlink:href="#mb7b1047b32" x="69.338116" y="307.584" style="stroke: #000000; stroke-width: 0.6"/>
      </g>
     </g>
    </g>
    <g id="xtick_13">
     <g id="line2d_21">
      <g>
       <use xlink:href="#mb7b1047b32" x="71.710531" y="307.584" style="stroke: #000000; stroke-width: 0.6"/>
      </g>
     </g>
    </g>
    <g id="xtick_14">
     <g id="line2d_22">
      <g>
       <use xlink:href="#mb7b1047b32" x="87.794264" y="307.584" style="stroke: #000000; stroke-width: 0.6"/>
      </g>
     </g>
    </g>
    <g id="xtick_15">
     <g id="line2d_23">
      <g>
       <use xlink:href="#mb7b1047b32" x="95.961239" y="307.584" style="stroke: #000000; stroke-width: 0.6"/>
      </g>
     </g>
    </g>
    <g id="xtick_16">
     <g id="line2d_24">
      <g>
       <use xlink:href="#mb7b1047b32" x="101.755801" y="307.584" style="stroke: #000000; stroke-width: 0.6"/>
      </g>
     </g>
    </g>
    <g id="xtick_17">
     <g id="line2d_25">
      <g>
       <use xlink:href="#mb7b1047b32" x="106.250411" y="307.584" style="stroke: #000000; stroke-width: 0.6"/>
      </g>
     </g>
    </g>
    <g id="xtick_18">
     <g id="line2d_26">
      <g>
       <use xlink:href="#mb7b1047b32" x="109.922776" y="307.584" style="stroke: #000000; stroke-width: 0.6"/>
      </g>
     </g>
    </g>
    <g id="xtick_19">
     <g id="line2d_27">
      <g>
       <use xlink:href="#mb7b1047b32" x="113.027716" y="307.584" style="stroke: #000000; stroke-width: 0.6"/>
      </g>
     </g>
    </g>
    <g id="xtick_20">
     <g id="line2d_28">
      <g>
       <use xlink:href="#mb7b1047b32" x="115.717337" y="307.584" style="stroke: #000000; stroke-width: 0.6"/>
      </g>
     </g>
    </g>
    <g id="xtick_21">
     <g id="line2d_29">
      <g>
       <use xlink:href="#mb7b1047b32" x="118.089751" y="307.584" style="stroke: #000000; stroke-width: 0.6"/>
      </g>
     </g>
    </g>
    <g id="xtick_22">
     <g id="line2d_30">
      <g>
       <use xlink:href="#mb7b1047b32" x="134.173485" y="307.584" style="stroke: #000000; stroke-width: 0.6"/>
      </g>
     </g>
    </g>
    <g id="xtick_23">
     <g id="line2d_31">
      <g>
       <use xlink:href="#mb7b1047b32" x="142.34046" y="307.584" style="stroke: #000000; stroke-width: 0.6"/>
      </g>
     </g>
    </g>
    <g id="xtick_24">
     <g id="line2d_32">
      <g>
       <use xlink:href="#mb7b1047b32" x="148.135021" y="307.584" style="stroke: #000000; stroke-width: 0.6"/>
      </g>
     </g>
    </g>
    <g id="xtick_25">
     <g id="line2d_33">
      <g>
       <use xlink:href="#mb7b1047b32" x="152.629632" y="307.584" style="stroke: #000000; stroke-width: 0.6"/>
      </g>
     </g>
    </g>
    <g id="xtick_26">
     <g id="line2d_34">
      <g>
       <use xlink:href="#mb7b1047b32" x="156.301997" y="307.584" style="stroke: #000000; stroke-width: 0.6"/>
      </g>
     </g>
    </g>
    <g id="xtick_27">
     <g id="line2d_35">
      <g>
       <use xlink:href="#mb7b1047b32" x="159.406937" y="307.584" style="stroke: #000000; stroke-width: 0.6"/>
      </g>
     </g>
    </g>
    <g id="xtick_28">
     <g id="line2d_36">
      <g>
       <use xlink:href="#mb7b1047b32" x="162.096558" y="307.584" style="stroke: #000000; stroke-width: 0.6"/>
      </g>
     </g>
    </g>
    <g id="xtick_29">
     <g id="line2d_37">
      <g>
       <use xlink:href="#mb7b1047b32" x="164.468972" y="307.584" style="stroke: #000000; stroke-width: 0.6"/>
      </g>
     </g>
    </g>
    <g id="xtick_30">
     <g id="line2d_38">
      <g>
       <use xlink:href="#mb7b1047b32" x="180.552705" y="307.584" style="stroke: #000000; stroke-width: 0.6"/>
      </g>
     </g>
    </g>
    <g id="xtick_31">
     <g id="line2d_39">
      <g>
       <use xlink:href="#mb7b1047b32" x="188.719681" y="307.584" style="stroke: #000000; stroke-width: 0.6"/>
      </g>
     </g>
    </g>
    <g id="xtick_32">
     <g id="line2d_40">
      <g>
       <use xlink:href="#mb7b1047b32" x="194.514242" y="307.584" style="stroke: #000000; stroke-width: 0.6"/>
      </g>
     </g>
    </g>
    <g id="xtick_33">
     <g id="line2d_41">
      <g>
       <use xlink:href="#mb7b1047b32" x="199.008853" y="307.584" style="stroke: #000000; stroke-width: 0.6"/>
      </g>
     </g>
    </g>
    <g id="xtick_34">
     <g id="line2d_42">
      <g>
       <use xlink:href="#mb7b1047b32" x="202.681217" y="307.584" style="stroke: #000000; stroke-width: 0.6"/>
      </g>
     </g>
    </g>
    <g id="xtick_35">
     <g id="line2d_43">
      <g>
       <use xlink:href="#mb7b1047b32" x="205.786157" y="307.584" style="stroke: #000000; stroke-width: 0.6"/>
      </g>
     </g>
    </g>
    <g id="xtick_36">
     <g id="line2d_44">
      <g>
       <use xlink:href="#mb7b1047b32" x="208.475779" y="307.584" style="stroke: #000000; stroke-width: 0.6"/>
      </g>
     </g>
    </g>
    <g id="xtick_37">
     <g id="line2d_45">
      <g>
       <use xlink:href="#mb7b1047b32" x="210.848193" y="307.584" style="stroke: #000000; stroke-width: 0.6"/>
      </g>
     </g>
    </g>
    <g id="xtick_38">
     <g id="line2d_46">
      <g>
       <use xlink:href="#mb7b1047b32" x="226.931926" y="307.584" style="stroke: #000000; stroke-width: 0.6"/>
      </g>
     </g>
    </g>
    <g id="xtick_39">
     <g id="line2d_47">
      <g>
       <use xlink:href="#mb7b1047b32" x="235.098902" y="307.584" style="stroke: #000000; stroke-width: 0.6"/>
      </g>
     </g>
    </g>
    <g id="xtick_40">
     <g id="line2d_48">
      <g>
       <use xlink:href="#mb7b1047b32" x="240.893463" y="307.584" style="stroke: #000000; stroke-width: 0.6"/>
      </g>
     </g>
    </g>
    <g id="xtick_41">
     <g id="line2d_49">
      <g>
       <use xlink:href="#mb7b1047b32" x="245.388074" y="307.584" style="stroke: #000000; stroke-width: 0.6"/>
      </g>
     </g>
    </g>
    <g id="xtick_42">
     <g id="line2d_50">
      <g>
       <use xlink:href="#mb7b1047b32" x="249.060438" y="307.584" style="stroke: #000000; stroke-width: 0.6"/>
      </g>
     </g>
    </g>
    <g id="xtick_43">
     <g id="line2d_51">
      <g>
       <use xlink:href="#mb7b1047b32" x="252.165378" y="307.584" style="stroke: #000000; stroke-width: 0.6"/>
      </g>
     </g>
    </g>
    <g id="xtick_44">
     <g id="line2d_52">
      <g>
       <use xlink:href="#mb7b1047b32" x="254.855" y="307.584" style="stroke: #000000; stroke-width: 0.6"/>
      </g>
     </g>
    </g>
    <g id="xtick_45">
     <g id="line2d_53">
      <g>
       <use xlink:href="#mb7b1047b32" x="257.227414" y="307.584" style="stroke: #000000; stroke-width: 0.6"/>
      </g>
     </g>
    </g>
    <g id="xtick_46">
     <g id="line2d_54">
      <g>
       <use xlink:href="#mb7b1047b32" x="273.311147" y="307.584" style="stroke: #000000; stroke-width: 0.6"/>
      </g>
     </g>
    </g>
    <g id="xtick_47">
     <g id="line2d_55">
      <g>
       <use xlink:href="#mb7b1047b32" x="281.478122" y="307.584" style="stroke: #000000; stroke-width: 0.6"/>
      </g>
     </g>
    </g>
    <g id="xtick_48">
     <g id="line2d_56">
      <g>
       <use xlink:href="#mb7b1047b32" x="287.272684" y="307.584" style="stroke: #000000; stroke-width: 0.6"/>
      </g>
     </g>
    </g>
    <g id="xtick_49">
     <g id="line2d_57">
      <g>
       <use xlink:href="#mb7b1047b32" x="291.767295" y="307.584" style="stroke: #000000; stroke-width: 0.6"/>
      </g>
     </g>
    </g>
    <g id="xtick_50">
     <g id="line2d_58">
      <g>
       <use xlink:href="#mb7b1047b32" x="295.439659" y="307.584" style="stroke: #000000; stroke-width: 0.6"/>
      </g>
     </g>
    </g>
    <g id="xtick_51">
     <g id="line2d_59">
      <g>
       <use xlink:href="#mb7b1047b32" x="298.544599" y="307.584" style="stroke: #000000; stroke-width: 0.6"/>
      </g>
     </g>
    </g>
    <g id="xtick_52">
     <g id="line2d_60">
      <g>
       <use xlink:href="#mb7b1047b32" x="301.23422" y="307.584" style="stroke: #000000; stroke-width: 0.6"/>
      </g>
     </g>
    </g>
    <g id="xtick_53">
     <g id="line2d_61">
      <g>
       <use xlink:href="#mb7b1047b32" x="303.606634" y="307.584" style="stroke: #000000; stroke-width: 0.6"/>
      </g>
     </g>
    </g>
    <g id="xtick_54">
     <g id="line2d_62">
      <g>
       <use xlink:href="#mb7b1047b32" x="319.690368" y="307.584" style="stroke: #000000; stroke-width: 0.6"/>
      </g>
     </g>
    </g>
    <g id="xtick_55">
     <g id="line2d_63">
      <g>
       <use xlink:href="#mb7b1047b32" x="327.857343" y="307.584" style="stroke: #000000; stroke-width: 0.6"/>
      </g>
     </g>
    </g>
    <g id="xtick_56">
     <g id="line2d_64">
      <g>
       <use xlink:href="#mb7b1047b32" x="333.651904" y="307.584" style="stroke: #000000; stroke-width: 0.6"/>
      </g>
     </g>
    </g>
    <g id="xtick_57">
     <g id="line2d_65">
      <g>
       <use xlink:href="#mb7b1047b32" x="338.146515" y="307.584" style="stroke: #000000; stroke-width: 0.6"/>
      </g>
     </g>
    </g>
    <g id="xtick_58">
     <g id="line2d_66">
      <g>
       <use xlink:href="#mb7b1047b32" x="341.81888" y="307.584" style="stroke: #000000; stroke-width: 0.6"/>
      </g>
     </g>
    </g>
    <g id="xtick_59">
     <g id="line2d_67">
      <g>
       <use xlink:href="#mb7b1047b32" x="344.92382" y="307.584" style="stroke: #000000; stroke-width: 0.6"/>
      </g>
     </g>
    </g>
    <g id="xtick_60">
     <g id="line2d_68">
      <g>
       <use xlink:href="#mb7b1047b32" x="347.613441" y="307.584" style="stroke: #000000; stroke-width: 0.6"/>
      </g>
     </g>
    </g>
    <g id="xtick_61">
     <g id="line2d_69">
      <g>
       <use xlink:href="#mb7b1047b32" x="349.985855" y="307.584" style="stroke: #000000; stroke-width: 0.6"/>
      </g>
     </g>
    </g>
    <g id="xtick_62">
     <g id="line2d_70">
      <g>
       <use xlink:href="#mb7b1047b32" x="366.069589" y="307.584" style="stroke: #000000; stroke-width: 0.6"/>
      </g>
     </g>
    </g>
    <g id="xtick_63">
     <g id="line2d_71">
      <g>
       <use xlink:href="#mb7b1047b32" x="374.236564" y="307.584" style="stroke: #000000; stroke-width: 0.6"/>
      </g>
     </g>
    </g>
    <g id="xtick_64">
     <g id="line2d_72">
      <g>
       <use xlink:href="#mb7b1047b32" x="380.031125" y="307.584" style="stroke: #000000; stroke-width: 0.6"/>
      </g>
     </g>
    </g>
    <g id="xtick_65">
     <g id="line2d_73">
      <g>
       <use xlink:href="#mb7b1047b32" x="384.525736" y="307.584" style="stroke: #000000; stroke-width: 0.6"/>
      </g>
     </g>
    </g>
    <g id="xtick_66">
     <g id="line2d_74">
      <g>
       <use xlink:href="#mb7b1047b32" x="388.198101" y="307.584" style="stroke: #000000; stroke-width: 0.6"/>
      </g>
     </g>
    </g>
    <g id="xtick_67">
     <g id="line2d_75">
      <g>
       <use xlink:href="#mb7b1047b32" x="391.303041" y="307.584" style="stroke: #000000; stroke-width: 0.6"/>
      </g>
     </g>
    </g>
    <g id="xtick_68">
     <g id="line2d_76">
      <g>
       <use xlink:href="#mb7b1047b32" x="393.992662" y="307.584" style="stroke: #000000; stroke-width: 0.6"/>
      </g>
     </g>
    </g>
    <g id="xtick_69">
     <g id="line2d_77">
      <g>
       <use xlink:href="#mb7b1047b32" x="396.365076" y="307.584" style="stroke: #000000; stroke-width: 0.6"/>
      </g>
     </g>
    </g>
    <g id="xtick_70">
     <g id="line2d_78">
      <g>
       <use xlink:href="#mb7b1047b32" x="412.448809" y="307.584" style="stroke: #000000; stroke-width: 0.6"/>
      </g>
     </g>
    </g>
    <g id="text_9">
     <!-- ∆a/a -->
     <g transform="translate(225.002969 335.860562) scale(0.1 -0.1)">
      <defs>
       <path id="DejaVuSans-2206" d="M 2138 3944 
L 831 556 
L 3444 556 
L 2138 3944 
z
M 1791 4603 
L 2491 4603 
L 4300 0 
L -19 0 
L 1791 4603 
z
" transform="scale(0.015625)"/>
       <path id="DejaVuSans-61" d="M 2194 1759 
Q 1497 1759 1228 1600 
Q 959 1441 959 1056 
Q 959 750 1161 570 
Q 1363 391 1709 391 
Q 2188 391 2477 730 
Q 2766 1069 2766 1631 
L 2766 1759 
L 2194 1759 
z
M 3341 1997 
L 3341 0 
L 2766 0 
L 2766 531 
Q 2569 213 2275 61 
Q 1981 -91 1556 -91 
Q 1019 -91 701 211 
Q 384 513 384 1019 
Q 384 1609 779 1909 
Q 1175 2209 1959 2209 
L 2766 2209 
L 2766 2266 
Q 2766 2663 2505 2880 
Q 2244 3097 1772 3097 
Q 1472 3097 1187 3025 
Q 903 2953 641 2809 
L 641 3341 
Q 956 3463 1253 3523 
Q 1550 3584 1831 3584 
Q 2591 3584 2966 3190 
Q 3341 2797 3341 1997 
z
" transform="scale(0.015625)"/>
       <path id="DejaVuSans-2f" d="M 1625 4666 
L 2156 4666 
L 531 -594 
L 0 -594 
L 1625 4666 
z
" transform="scale(0.015625)"/>
      </defs>
      <use xlink:href="#DejaVuSans-2206"/>
      <use xlink:href="#DejaVuSans-61" x="66.894531"/>
      <use xlink:href="#DejaVuSans-2f" x="128.173828"/>
      <use xlink:href="#DejaVuSans-61" x="161.865234"/>
     </g>
    </g>
   </g>
   <g id="matplotlib.axis_2">
    <g id="ytick_1">
     <g id="line2d_79">
      <path d="M 57.6 294.262774 
L 414.72 294.262774 
" clip-path="url(#p537e6fdafe)" style="fill: none; stroke: #b0b0b0; stroke-linecap: square"/>
     </g>
     <g id="line2d_80">
      <defs>
       <path id="m128e60d455" d="M 0 0 
L -3.5 0 
" style="stroke: #000000; stroke-width: 0.8"/>
      </defs>
      <g>
       <use xlink:href="#m128e60d455" x="57.6" y="294.262774" style="stroke: #000000; stroke-width: 0.8"/>
      </g>
     </g>
     <g id="text_10">
      <!-- $\mathdefault{10^{-4}}$ -->
      <g transform="translate(27.1 298.061992) scale(0.1 -0.1)">
       <use xlink:href="#DejaVuSans-31" transform="translate(0 0.684375)"/>
       <use xlink:href="#DejaVuSans-30" transform="translate(63.623047 0.684375)"/>
       <use xlink:href="#DejaVuSans-2212" transform="translate(128.203125 38.965625) scale(0.7)"/>
       <use xlink:href="#DejaVuSans-34" transform="translate(186.855469 38.965625) scale(0.7)"/>
      </g>
     </g>
    </g>
    <g id="ytick_2">
     <g id="line2d_81">
      <path d="M 57.6 234.088457 
L 414.72 234.088457 
" clip-path="url(#p537e6fdafe)" style="fill: none; stroke: #b0b0b0; stroke-linecap: square"/>
     </g>
     <g id="line2d_82">
      <g>
       <use xlink:href="#m128e60d455" x="57.6" y="234.088457" style="stroke: #000000; stroke-width: 0.8"/>
      </g>
     </g>
     <g id="text_11">
      <!-- $\mathdefault{10^{-3}}$ -->
      <g transform="translate(27.1 237.887676) scale(0.1 -0.1)">
       <use xlink:href="#DejaVuSans-31" transform="translate(0 0.765625)"/>
       <use xlink:href="#DejaVuSans-30" transform="translate(63.623047 0.765625)"/>
       <use xlink:href="#DejaVuSans-2212" transform="translate(128.203125 39.046875) scale(0.7)"/>
       <use xlink:href="#DejaVuSans-33" transform="translate(186.855469 39.046875) scale(0.7)"/>
      </g>
     </g>
    </g>
    <g id="ytick_3">
     <g id="line2d_83">
      <path d="M 57.6 173.91414 
L 414.72 173.91414 
" clip-path="url(#p537e6fdafe)" style="fill: none; stroke: #b0b0b0; stroke-linecap: square"/>
     </g>
     <g id="line2d_84">
      <g>
       <use xlink:href="#m128e60d455" x="57.6" y="173.91414" style="stroke: #000000; stroke-width: 0.8"/>
      </g>
     </g>
     <g id="text_12">
      <!-- $\mathdefault{10^{-2}}$ -->
      <g transform="translate(27.1 177.713359) scale(0.1 -0.1)">
       <use xlink:href="#DejaVuSans-31" transform="translate(0 0.765625)"/>
       <use xlink:href="#DejaVuSans-30" transform="translate(63.623047 0.765625)"/>
       <use xlink:href="#DejaVuSans-2212" transform="translate(128.203125 39.046875) scale(0.7)"/>
       <use xlink:href="#DejaVuSans-32" transform="translate(186.855469 39.046875) scale(0.7)"/>
      </g>
     </g>
    </g>
    <g id="ytick_4">
     <g id="line2d_85">
      <path d="M 57.6 113.739823 
L 414.72 113.739823 
" clip-path="url(#p537e6fdafe)" style="fill: none; stroke: #b0b0b0; stroke-linecap: square"/>
     </g>
     <g id="line2d_86">
      <g>
       <use xlink:href="#m128e60d455" x="57.6" y="113.739823" style="stroke: #000000; stroke-width: 0.8"/>
      </g>
     </g>
     <g id="text_13">
      <!-- $\mathdefault{10^{-1}}$ -->
      <g transform="translate(27.1 117.539042) scale(0.1 -0.1)">
       <use xlink:href="#DejaVuSans-31" transform="translate(0 0.684375)"/>
       <use xlink:href="#DejaVuSans-30" transform="translate(63.623047 0.684375)"/>
       <use xlink:href="#DejaVuSans-2212" transform="translate(128.203125 38.965625) scale(0.7)"/>
       <use xlink:href="#DejaVuSans-31" transform="translate(186.855469 38.965625) scale(0.7)"/>
      </g>
     </g>
    </g>
    <g id="ytick_5">
     <g id="line2d_87">
      <path d="M 57.6 53.565506 
L 414.72 53.565506 
" clip-path="url(#p537e6fdafe)" style="fill: none; stroke: #b0b0b0; stroke-linecap: square"/>
     </g>
     <g id="line2d_88">
      <g>
       <use xlink:href="#m128e60d455" x="57.6" y="53.565506" style="stroke: #000000; stroke-width: 0.8"/>
      </g>
     </g>
     <g id="text_14">
      <!-- $\mathdefault{10^{0}}$ -->
      <g transform="translate(33 57.364725) scale(0.1 -0.1)">
       <use xlink:href="#DejaVuSans-31" transform="translate(0 0.765625)"/>
       <use xlink:href="#DejaVuSans-30" transform="translate(63.623047 0.765625)"/>
       <use xlink:href="#DejaVuSans-30" transform="translate(128.203125 39.046875) scale(0.7)"/>
      </g>
     </g>
    </g>
    <g id="ytick_6">
     <g id="line2d_89">
      <defs>
       <path id="m53ba277928" d="M 0 0 
L -2 0 
" style="stroke: #000000; stroke-width: 0.6"/>
      </defs>
      <g>
       <use xlink:href="#m53ba277928" x="57.6" y="303.583893" style="stroke: #000000; stroke-width: 0.6"/>
      </g>
     </g>
    </g>
    <g id="ytick_7">
     <g id="line2d_90">
      <g>
       <use xlink:href="#m53ba277928" x="57.6" y="300.094268" style="stroke: #000000; stroke-width: 0.6"/>
      </g>
     </g>
    </g>
    <g id="ytick_8">
     <g id="line2d_91">
      <g>
       <use xlink:href="#m53ba277928" x="57.6" y="297.016199" style="stroke: #000000; stroke-width: 0.6"/>
      </g>
     </g>
    </g>
    <g id="ytick_9">
     <g id="line2d_92">
      <g>
       <use xlink:href="#m53ba277928" x="57.6" y="276.148499" style="stroke: #000000; stroke-width: 0.6"/>
      </g>
     </g>
    </g>
    <g id="ytick_10">
     <g id="line2d_93">
      <g>
       <use xlink:href="#m53ba277928" x="57.6" y="265.552328" style="stroke: #000000; stroke-width: 0.6"/>
      </g>
     </g>
    </g>
    <g id="ytick_11">
     <g id="line2d_94">
      <g>
       <use xlink:href="#m53ba277928" x="57.6" y="258.034225" style="stroke: #000000; stroke-width: 0.6"/>
      </g>
     </g>
    </g>
    <g id="ytick_12">
     <g id="line2d_95">
      <g>
       <use xlink:href="#m53ba277928" x="57.6" y="252.202731" style="stroke: #000000; stroke-width: 0.6"/>
      </g>
     </g>
    </g>
    <g id="ytick_13">
     <g id="line2d_96">
      <g>
       <use xlink:href="#m53ba277928" x="57.6" y="247.438054" style="stroke: #000000; stroke-width: 0.6"/>
      </g>
     </g>
    </g>
    <g id="ytick_14">
     <g id="line2d_97">
      <g>
       <use xlink:href="#m53ba277928" x="57.6" y="243.409576" style="stroke: #000000; stroke-width: 0.6"/>
      </g>
     </g>
    </g>
    <g id="ytick_15">
     <g id="line2d_98">
      <g>
       <use xlink:href="#m53ba277928" x="57.6" y="239.919951" style="stroke: #000000; stroke-width: 0.6"/>
      </g>
     </g>
    </g>
    <g id="ytick_16">
     <g id="line2d_99">
      <g>
       <use xlink:href="#m53ba277928" x="57.6" y="236.841883" style="stroke: #000000; stroke-width: 0.6"/>
      </g>
     </g>
    </g>
    <g id="ytick_17">
     <g id="line2d_100">
      <g>
       <use xlink:href="#m53ba277928" x="57.6" y="215.974183" style="stroke: #000000; stroke-width: 0.6"/>
      </g>
     </g>
    </g>
    <g id="ytick_18">
     <g id="line2d_101">
      <g>
       <use xlink:href="#m53ba277928" x="57.6" y="205.378011" style="stroke: #000000; stroke-width: 0.6"/>
      </g>
     </g>
    </g>
    <g id="ytick_19">
     <g id="line2d_102">
      <g>
       <use xlink:href="#m53ba277928" x="57.6" y="197.859908" style="stroke: #000000; stroke-width: 0.6"/>
      </g>
     </g>
    </g>
    <g id="ytick_20">
     <g id="line2d_103">
      <g>
       <use xlink:href="#m53ba277928" x="57.6" y="192.028414" style="stroke: #000000; stroke-width: 0.6"/>
      </g>
     </g>
    </g>
    <g id="ytick_21">
     <g id="line2d_104">
      <g>
       <use xlink:href="#m53ba277928" x="57.6" y="187.263737" style="stroke: #000000; stroke-width: 0.6"/>
      </g>
     </g>
    </g>
    <g id="ytick_22">
     <g id="line2d_105">
      <g>
       <use xlink:href="#m53ba277928" x="57.6" y="183.23526" style="stroke: #000000; stroke-width: 0.6"/>
      </g>
     </g>
    </g>
    <g id="ytick_23">
     <g id="line2d_106">
      <g>
       <use xlink:href="#m53ba277928" x="57.6" y="179.745634" style="stroke: #000000; stroke-width: 0.6"/>
      </g>
     </g>
    </g>
    <g id="ytick_24">
     <g id="line2d_107">
      <g>
       <use xlink:href="#m53ba277928" x="57.6" y="176.667566" style="stroke: #000000; stroke-width: 0.6"/>
      </g>
     </g>
    </g>
    <g id="ytick_25">
     <g id="line2d_108">
      <g>
       <use xlink:href="#m53ba277928" x="57.6" y="155.799866" style="stroke: #000000; stroke-width: 0.6"/>
      </g>
     </g>
    </g>
    <g id="ytick_26">
     <g id="line2d_109">
      <g>
       <use xlink:href="#m53ba277928" x="57.6" y="145.203694" style="stroke: #000000; stroke-width: 0.6"/>
      </g>
     </g>
    </g>
    <g id="ytick_27">
     <g id="line2d_110">
      <g>
       <use xlink:href="#m53ba277928" x="57.6" y="137.685591" style="stroke: #000000; stroke-width: 0.6"/>
      </g>
     </g>
    </g>
    <g id="ytick_28">
     <g id="line2d_111">
      <g>
       <use xlink:href="#m53ba277928" x="57.6" y="131.854097" style="stroke: #000000; stroke-width: 0.6"/>
      </g>
     </g>
    </g>
    <g id="ytick_29">
     <g id="line2d_112">
      <g>
       <use xlink:href="#m53ba277928" x="57.6" y="127.08942" style="stroke: #000000; stroke-width: 0.6"/>
      </g>
     </g>
    </g>
    <g id="ytick_30">
     <g id="line2d_113">
      <g>
       <use xlink:href="#m53ba277928" x="57.6" y="123.060943" style="stroke: #000000; stroke-width: 0.6"/>
      </g>
     </g>
    </g>
    <g id="ytick_31">
     <g id="line2d_114">
      <g>
       <use xlink:href="#m53ba277928" x="57.6" y="119.571317" style="stroke: #000000; stroke-width: 0.6"/>
      </g>
     </g>
    </g>
    <g id="ytick_32">
     <g id="line2d_115">
      <g>
       <use xlink:href="#m53ba277928" x="57.6" y="116.493249" style="stroke: #000000; stroke-width: 0.6"/>
      </g>
     </g>
    </g>
    <g id="ytick_33">
     <g id="line2d_116">
      <g>
       <use xlink:href="#m53ba277928" x="57.6" y="95.625549" style="stroke: #000000; stroke-width: 0.6"/>
      </g>
     </g>
    </g>
    <g id="ytick_34">
     <g id="line2d_117">
      <g>
       <use xlink:href="#m53ba277928" x="57.6" y="85.029378" style="stroke: #000000; stroke-width: 0.6"/>
      </g>
     </g>
    </g>
    <g id="ytick_35">
     <g id="line2d_118">
      <g>
       <use xlink:href="#m53ba277928" x="57.6" y="77.511274" style="stroke: #000000; stroke-width: 0.6"/>
      </g>
     </g>
    </g>
    <g id="ytick_36">
     <g id="line2d_119">
      <g>
       <use xlink:href="#m53ba277928" x="57.6" y="71.679781" style="stroke: #000000; stroke-width: 0.6"/>
      </g>
     </g>
    </g>
    <g id="ytick_37">
     <g id="line2d_120">
      <g>
       <use xlink:href="#m53ba277928" x="57.6" y="66.915103" style="stroke: #000000; stroke-width: 0.6"/>
      </g>
     </g>
    </g>
    <g id="ytick_38">
     <g id="line2d_121">
      <g>
       <use xlink:href="#m53ba277928" x="57.6" y="62.886626" style="stroke: #000000; stroke-width: 0.6"/>
      </g>
     </g>
    </g>
    <g id="ytick_39">
     <g id="line2d_122">
      <g>
       <use xlink:href="#m53ba277928" x="57.6" y="59.397" style="stroke: #000000; stroke-width: 0.6"/>
      </g>
     </g>
    </g>
    <g id="ytick_40">
     <g id="line2d_123">
      <g>
       <use xlink:href="#m53ba277928" x="57.6" y="56.318932" style="stroke: #000000; stroke-width: 0.6"/>
      </g>
     </g>
    </g>
    <g id="text_15">
     <!-- F(&gt;∆a/a) -->
     <g transform="translate(21.020312 196.652219) rotate(-90) scale(0.1 -0.1)">
      <defs>
       <path id="DejaVuSans-46" d="M 628 4666 
L 3309 4666 
L 3309 4134 
L 1259 4134 
L 1259 2759 
L 3109 2759 
L 3109 2228 
L 1259 2228 
L 1259 0 
L 628 0 
L 628 4666 
z
" transform="scale(0.015625)"/>
       <path id="DejaVuSans-28" d="M 1984 4856 
Q 1566 4138 1362 3434 
Q 1159 2731 1159 2009 
Q 1159 1288 1364 580 
Q 1569 -128 1984 -844 
L 1484 -844 
Q 1016 -109 783 600 
Q 550 1309 550 2009 
Q 550 2706 781 3412 
Q 1013 4119 1484 4856 
L 1984 4856 
z
" transform="scale(0.015625)"/>
       <path id="DejaVuSans-3e" d="M 678 3150 
L 678 3719 
L 4684 2266 
L 4684 1747 
L 678 294 
L 678 863 
L 3897 2003 
L 678 3150 
z
" transform="scale(0.015625)"/>
       <path id="DejaVuSans-29" d="M 513 4856 
L 1013 4856 
Q 1481 4119 1714 3412 
Q 1947 2706 1947 2009 
Q 1947 1309 1714 600 
Q 1481 -109 1013 -844 
L 513 -844 
Q 928 -128 1133 580 
Q 1338 1288 1338 2009 
Q 1338 2731 1133 3434 
Q 928 4138 513 4856 
z
" transform="scale(0.015625)"/>
      </defs>
      <use xlink:href="#DejaVuSans-46"/>
      <use xlink:href="#DejaVuSans-28" x="57.519531"/>
      <use xlink:href="#DejaVuSans-3e" x="96.533203"/>
      <use xlink:href="#DejaVuSans-2206" x="180.322266"/>
      <use xlink:href="#DejaVuSans-61" x="247.216797"/>
      <use xlink:href="#DejaVuSans-2f" x="308.496094"/>
      <use xlink:href="#DejaVuSans-61" x="342.1875"/>
      <use xlink:href="#DejaVuSans-29" x="403.466797"/>
     </g>
    </g>
   </g>
   <g id="line2d_124">
    <path d="M 57.6 71.679781 
L 414.72 71.679781 
" clip-path="url(#p537e6fdafe)" style="fill: none; stroke-dasharray: 1.5,2.475; stroke-dashoffset: 0; stroke: #ff0000; stroke-width: 1.5"/>
   </g>
   <g id="line2d_125">
    <path d="M 57.6 113.739823 
L 414.72 113.739823 
" clip-path="url(#p537e6fdafe)" style="fill: none; stroke-dasharray: 1.5,2.475; stroke-dashoffset: 0; stroke: #ff0000; stroke-width: 1.5"/>
   </g>
   <g id="line2d_126">
    <path d="M 57.6 173.91414 
L 414.72 173.91414 
" clip-path="url(#p537e6fdafe)" style="fill: none; stroke-dasharray: 1.5,2.475; stroke-dashoffset: 0; stroke: #ff0000; stroke-width: 1.5"/>
   </g>
   <g id="line2d_127">
    <path d="M 227.96886 346.6 
L 227.961653 214.708632 
L 224.682314 179.080877 
L 221.402975 159.346551 
L 218.123636 151.828448 
L 214.844298 129.110648 
L 211.564959 119.897518 
L 208.28562 112.474273 
L 205.006281 108.554628 
L 201.726942 105.218819 
L 198.447603 102.747684 
L 195.168264 101.036525 
L 191.888926 99.633254 
L 188.609587 98.136282 
L 185.330248 95.888702 
L 182.050909 91.483324 
L 178.77157 87.853089 
L 175.492231 84.162818 
L 172.212893 81.366809 
L 168.933554 78.900347 
L 165.654215 77.68014 
L 162.374876 75.175107 
L 159.095537 73.438306 
L 155.816198 71.234736 
L 152.53686 68.28008 
L 149.257521 68.236328 
L 145.978182 65.1204 
L 142.698843 62.253144 
L 139.419504 62.228816 
L 136.140165 62.169828 
L 132.860826 59.344064 
L 129.581488 59.312975 
L 126.302149 59.27882 
L 123.02281 59.223025 
L 119.743471 55.724499 
L 116.464132 55.710961 
L 113.184793 55.702841 
L 109.905455 55.678497 
L 106.626116 55.66228 
L 103.346777 55.640673 
L 100.067438 55.629877 
L 96.788099 55.58404 
L 93.50876 55.567882 
L 90.229421 55.535595 
L 86.950083 55.495293 
L 83.670744 55.457733 
L 80.391405 55.417551 
L 77.112066 55.350717 
L 73.832727 55.270741 
" clip-path="url(#p537e6fdafe)" style="fill: none; stroke: #1f77b4; stroke-width: 1.5; stroke-linecap: square"/>
   </g>
   <g id="line2d_128">
    <path d="M 257.479489 346.6 
L 257.475702 277.373726 
L 254.196364 277.373726 
L 250.917025 277.373726 
L 247.637686 277.373726 
L 244.358347 277.373726 
L 241.079008 277.373726 
L 237.799669 277.373726 
L 234.520331 259.259451 
L 231.240992 248.66328 
L 227.961653 199.746774 
L 224.682314 165.249545 
L 221.402975 153.372641 
L 218.123636 139.041812 
L 214.844298 121.291196 
L 211.564959 113.541089 
L 208.28562 108.759919 
L 205.006281 105.472016 
L 201.726942 102.928425 
L 198.447603 101.128706 
L 195.168264 99.676894 
L 191.888926 98.287701 
L 188.609587 97.192736 
L 185.330248 95.303369 
L 182.050909 91.082077 
L 178.77157 86.676119 
L 175.492231 82.383399 
L 172.212893 79.810124 
L 168.933554 77.343493 
L 165.654215 76.168626 
L 162.374876 74.05908 
L 159.095537 72.936386 
L 155.816198 71.224932 
L 152.53686 69.017281 
L 149.257521 68.735046 
L 145.978182 66.125045 
L 142.698843 63.198402 
L 139.419504 63.097654 
L 136.140165 62.843913 
L 132.860826 59.732671 
L 129.581488 59.634976 
L 126.302149 59.487551 
L 123.02281 59.133385 
L 119.743471 55.724499 
L 116.464132 55.667684 
L 113.184793 55.602904 
L 109.905455 55.549043 
L 106.626116 55.492608 
L 103.346777 55.42826 
L 100.067438 55.332034 
L 96.788099 55.238819 
L 93.50876 55.164486 
L 90.229421 55.058662 
L 86.950083 54.979573 
L 83.670744 54.88236 
L 80.391405 54.798574 
L 77.112066 54.709844 
L 73.832727 54.603246 
" clip-path="url(#p537e6fdafe)" style="fill: none; stroke: #ff7f0e; stroke-width: 1.5; stroke-linecap: square"/>
   </g>
   <g id="line2d_129">
    <path d="M 300.111473 346.6 
L 300.107107 266.777554 
L 296.827769 253.427957 
L 293.54843 253.427957 
L 290.269091 253.427957 
L 286.989752 244.634803 
L 283.710413 232.822907 
L 280.431074 230.549006 
L 277.151736 230.549006 
L 273.872397 226.520528 
L 270.593058 223.030903 
L 267.313719 214.708632 
L 264.03438 209.356663 
L 260.755041 208.406254 
L 257.475702 203.332302 
L 254.196364 193.781606 
L 250.917025 184.836512 
L 247.637686 179.695808 
L 244.358347 169.51778 
L 241.079008 160.217744 
L 237.799669 151.509095 
L 234.520331 144.660772 
L 231.240992 138.780476 
L 227.961653 130.541075 
L 224.682314 120.927538 
L 221.402975 114.44754 
L 218.123636 106.510074 
L 214.844298 99.531709 
L 211.564959 95.377367 
L 208.28562 92.525324 
L 205.006281 90.779953 
L 201.726942 88.979009 
L 198.447603 87.917994 
L 195.168264 86.987817 
L 191.888926 86.176321 
L 188.609587 85.406127 
L 185.330248 84.348419 
L 182.050909 81.855434 
L 178.77157 78.801916 
L 175.492231 75.583045 
L 172.212893 73.566647 
L 168.933554 71.869988 
L 165.654215 70.976157 
L 162.374876 69.339053 
L 159.095537 68.249446 
L 155.816198 66.654574 
L 152.53686 64.594143 
L 149.257521 64.022405 
L 145.978182 62.382112 
L 142.698843 60.33956 
L 139.419504 60.075909 
L 136.140165 59.600398 
L 132.860826 57.651817 
L 129.581488 57.457192 
L 126.302149 57.183692 
L 123.02281 56.746327 
L 119.743471 54.88236 
L 116.464132 54.788119 
L 113.184793 54.733302 
L 109.905455 54.660391 
L 106.626116 54.559174 
L 103.346777 54.499666 
L 100.067438 54.42998 
L 96.788099 54.357909 
L 93.50876 54.291164 
L 90.229421 54.222031 
L 86.950083 54.147981 
L 83.670744 54.063971 
L 80.391405 53.995436 
L 77.112066 53.932138 
L 73.832727 53.874038 
" clip-path="url(#p537e6fdafe)" style="fill: none; stroke: #2ca02c; stroke-width: 1.5; stroke-linecap: square"/>
   </g>
   <g id="line2d_130">
    <path d="M 303.390812 346.6 
L 303.386446 266.777554 
L 300.107107 244.634803 
L 296.827769 241.145177 
L 293.54843 235.313683 
L 290.269091 232.822907 
L 286.989752 218.539876 
L 283.710413 210.342945 
L 280.431074 206.603238 
L 277.151736 203.332302 
L 273.872397 199.085134 
L 270.593058 195.432683 
L 267.313719 187.632055 
L 264.03438 183.008258 
L 260.755041 178.184788 
L 257.475702 172.64859 
L 254.196364 164.025686 
L 250.917025 157.553057 
L 247.637686 151.403506 
L 244.358347 143.62328 
L 241.079008 136.5391 
L 237.799669 129.563578 
L 234.520331 123.477477 
L 231.240992 117.805732 
L 227.961653 111.817385 
L 224.682314 105.563042 
L 221.402975 100.837907 
L 218.123636 95.021638 
L 214.844298 90.206246 
L 211.564959 87.212757 
L 208.28562 85.154358 
L 205.006281 83.74008 
L 201.726942 82.420985 
L 198.447603 81.591754 
L 195.168264 80.922646 
L 191.888926 80.242544 
L 188.609587 79.67433 
L 185.330248 78.906922 
L 182.050909 76.670861 
L 178.77157 74.196005 
L 175.492231 71.485997 
L 172.212893 69.706423 
L 168.933554 68.218847 
L 165.654215 67.279206 
L 162.374876 65.87623 
L 159.095537 64.788813 
L 155.816198 63.314021 
L 152.53686 61.729908 
L 149.257521 61.146858 
L 145.978182 59.973738 
L 142.698843 58.538483 
L 139.419504 58.256476 
L 136.140165 57.806807 
L 132.860826 56.505232 
L 129.581488 56.302313 
L 126.302149 56.057031 
L 123.02281 55.597513 
L 119.743471 54.442871 
L 116.464132 54.406793 
L 113.184793 54.337354 
L 109.905455 54.270661 
L 106.626116 54.216918 
L 103.346777 54.150531 
L 100.067438 54.071597 
L 96.788099 54.005578 
L 93.50876 53.957439 
L 90.229421 53.901809 
L 86.950083 53.861425 
L 83.670744 53.828659 
L 80.391405 53.795934 
L 77.112066 53.743157 
L 73.832727 53.725589 
" clip-path="url(#p537e6fdafe)" style="fill: none; stroke: #d62728; stroke-width: 1.5; stroke-linecap: square"/>
   </g>
   <g id="line2d_131">
    <path d="M 309.947921 346.6 
L 309.945124 295.488 
L 306.665785 277.373726 
L 303.386446 266.777554 
L 300.107107 248.66328 
L 296.827769 235.313683 
L 293.54843 232.822907 
L 290.269091 228.45722 
L 286.989752 218.539876 
L 283.710413 210.342945 
L 280.431074 204.916628 
L 277.151736 203.332302 
L 273.872397 201.83856 
L 270.593058 194.320457 
L 267.313719 186.397177 
L 264.03438 178.480084 
L 260.755041 174.114397 
L 257.475702 169.307872 
L 254.196364 160.966603 
L 250.917025 154.415796 
L 247.637686 147.769388 
L 244.358347 140.045778 
L 241.079008 133.184067 
L 237.799669 125.626636 
L 234.520331 119.803003 
L 231.240992 114.040787 
L 227.961653 107.888388 
L 224.682314 101.814825 
L 221.402975 97.458863 
L 218.123636 91.826062 
L 214.844298 87.412319 
L 211.564959 84.723624 
L 208.28562 82.731244 
L 205.006281 81.395726 
L 201.726942 80.194142 
L 198.447603 79.431666 
L 195.168264 78.815019 
L 191.888926 78.193383 
L 188.609587 77.673866 
L 185.330248 76.931742 
L 182.050909 74.885961 
L 178.77157 72.53137 
L 175.492231 69.93868 
L 172.212893 68.345847 
L 168.933554 66.877725 
L 165.654215 65.932208 
L 162.374876 64.491666 
L 159.095537 63.379282 
L 155.816198 61.948942 
L 152.53686 60.475638 
L 149.257521 59.707425 
L 145.978182 58.768734 
L 142.698843 57.489046 
L 139.419504 57.19515 
L 136.140165 56.698492 
L 132.860826 55.765157 
L 129.581488 55.538284 
L 126.302149 55.270741 
L 123.02281 54.809032 
L 119.743471 54.145431 
L 116.464132 54.084312 
L 113.184793 54.020799 
L 109.905455 53.970098 
L 106.626116 53.924552 
L 103.346777 53.876562 
L 100.067438 53.838737 
L 96.788099 53.793419 
L 93.50876 53.753202 
L 90.229421 53.725589 
L 86.950083 53.698005 
L 83.670744 53.677962 
L 80.391405 53.660437 
L 77.112066 53.650428 
L 73.832727 53.635422 
" clip-path="url(#p537e6fdafe)" style="fill: none; stroke: #9467bd; stroke-width: 1.5; stroke-linecap: square"/>
   </g>
   <g id="line2d_132">
    <path d="M 326.344615 346.6 
L 326.341818 295.488 
L 323.062479 295.488 
L 319.78314 295.488 
L 316.503802 295.488 
L 313.224463 266.777554 
L 309.945124 266.777554 
L 306.665785 266.777554 
L 303.386446 266.777554 
L 300.107107 248.66328 
L 296.827769 232.822907 
L 293.54843 232.822907 
L 290.269091 230.549006 
L 286.989752 218.539876 
L 283.710413 205.746329 
L 280.431074 201.83856 
L 277.151736 196.007066 
L 273.872397 190.762864 
L 270.593058 185.218028 
L 267.313719 176.756379 
L 264.03438 170.157813 
L 260.755041 161.27226 
L 257.475702 152.369531 
L 254.196364 143.157985 
L 250.917025 134.091752 
L 247.637686 126.668902 
L 244.358347 118.936966 
L 241.079008 111.267188 
L 237.799669 104.596355 
L 234.520331 98.453891 
L 231.240992 93.175609 
L 227.961653 87.686928 
L 224.682314 82.436034 
L 221.402975 78.078455 
L 218.123636 73.598831 
L 214.844298 69.990054 
L 211.564959 67.567367 
L 208.28562 65.756681 
L 205.006281 64.533367 
L 201.726942 63.616313 
L 198.447603 63.115616 
L 195.168264 62.748062 
L 191.888926 62.459098 
L 188.609587 62.260099 
L 185.330248 61.92833 
L 182.050909 61.00062 
L 178.77157 60.034354 
L 175.492231 59.080979 
L 172.212893 58.409102 
L 168.933554 57.859656 
L 165.654215 57.544158 
L 162.374876 57.046584 
L 159.095537 56.746327 
L 155.816198 56.424432 
L 152.53686 56.087222 
L 149.257521 55.805878 
L 145.978182 55.420228 
L 142.698843 55.040186 
L 139.419504 54.866629 
L 136.140165 54.605841 
L 132.860826 54.314249 
L 129.581488 54.206693 
L 126.302149 54.079226 
L 123.02281 53.911915 
L 119.743471 53.728098 
L 116.464132 53.703018 
L 113.184793 53.67045 
L 109.905455 53.65293 
L 106.626116 53.637922 
L 103.346777 53.620424 
L 100.067438 53.612928 
L 96.788099 53.612928 
L 93.50876 53.607933 
L 90.229421 53.600441 
L 86.950083 53.597944 
L 83.670744 53.597944 
L 80.391405 53.592951 
L 77.112066 53.590455 
L 73.832727 53.587959 
" clip-path="url(#p537e6fdafe)" style="fill: none; stroke: #8c564b; stroke-width: 1.5; stroke-linecap: square"/>
   </g>
   <g id="line2d_133">
    <path d="M 326.344615 346.6 
L 326.341818 295.488 
L 323.062479 295.488 
L 319.78314 295.488 
L 316.503802 295.488 
L 313.224463 266.777554 
L 309.945124 266.777554 
L 306.665785 266.777554 
L 303.386446 266.777554 
L 300.107107 253.427957 
L 296.827769 248.66328 
L 293.54843 238.067109 
L 290.269091 232.822907 
L 286.989752 221.446577 
L 283.710413 211.367915 
L 280.431074 208.406254 
L 277.151736 203.332302 
L 273.872397 196.594358 
L 270.593058 185.605196 
L 267.313719 179.695808 
L 264.03438 173.864315 
L 260.755041 166.722238 
L 257.475702 159.346551 
L 254.196364 151.298341 
L 250.917025 143.545154 
L 247.637686 136.242464 
L 244.358347 127.968504 
L 241.079008 119.771574 
L 237.799669 112.736922 
L 234.520331 105.672692 
L 231.240992 98.789477 
L 227.961653 91.568588 
L 224.682314 84.98785 
L 221.402975 79.647256 
L 218.123636 74.81839 
L 214.844298 70.971302 
L 211.564959 68.315135 
L 208.28562 66.311193 
L 205.006281 65.008115 
L 201.726942 64.06709 
L 198.447603 63.492059 
L 195.168264 63.151578 
L 191.888926 62.851027 
L 188.609587 62.613755 
L 185.330248 62.270535 
L 182.050909 61.387936 
L 178.77157 60.501638 
L 175.492231 59.726357 
L 172.212893 59.17044 
L 168.933554 58.583767 
L 165.654215 58.229634 
L 162.374876 57.768706 
L 159.095537 57.408039 
L 155.816198 56.930037 
L 152.53686 56.463408 
L 149.257521 55.999489 
L 145.978182 55.600209 
L 142.698843 55.132694 
L 139.419504 54.772446 
L 136.140165 54.368193 
L 132.860826 54.178597 
L 129.581488 53.985298 
L 126.302149 53.851339 
L 123.02281 53.740647 
L 119.743471 53.65293 
L 116.464132 53.635422 
L 113.184793 53.622923 
L 109.905455 53.602938 
L 106.626116 53.595447 
L 103.346777 53.590455 
L 100.067438 53.587959 
L 96.788099 53.587959 
L 93.50876 53.582968 
L 90.229421 53.580472 
L 86.950083 53.575483 
L 83.670744 53.572988 
L 80.391405 53.572988 
L 77.112066 53.568 
L 73.832727 53.568 
" clip-path="url(#p537e6fdafe)" style="fill: none; stroke: #e377c2; stroke-width: 1.5; stroke-linecap: square"/>
   </g>
   <g id="patch_3">
    <path d="M 57.6 307.584 
L 57.6 41.472 
" style="fill: none; stroke: #000000; stroke-width: 0.8; stroke-linejoin: miter; stroke-linecap: square"/>
   </g>
   <g id="patch_4">
    <path d="M 414.72 307.584 
L 414.72 41.472 
" style="fill: none; stroke: #000000; stroke-width: 0.8; stroke-linejoin: miter; stroke-linecap: square"/>
   </g>
   <g id="patch_5">
    <path d="M 57.6 307.584 
L 414.72 307.584 
" style="fill: none; stroke: #000000; stroke-width: 0.8; stroke-linejoin: miter; stroke-linecap: square"/>
   </g>
   <g id="patch_6">
    <path d="M 57.6 41.472 
L 414.72 41.472 
" style="fill: none; stroke: #000000; stroke-width: 0.8; stroke-linejoin: miter; stroke-linecap: square"/>
   </g>
   <g id="legend_1">
    <g id="patch_7">
     <path d="M 324.977813 152.218875 
L 407.72 152.218875 
Q 409.72 152.218875 409.72 150.218875 
L 409.72 48.472 
Q 409.72 46.472 407.72 46.472 
L 324.977813 46.472 
Q 322.977813 46.472 322.977813 48.472 
L 322.977813 150.218875 
Q 322.977813 152.218875 324.977813 152.218875 
z
" style="fill: #ffffff; opacity: 0.8; stroke: #cccccc; stroke-linejoin: miter"/>
    </g>
    <g id="line2d_134">
     <path d="M 326.977813 54.570438 
L 336.977813 54.570438 
L 346.977813 54.570438 
" style="fill: none; stroke: #1f77b4; stroke-width: 1.5; stroke-linecap: square"/>
    </g>
    <g id="text_16">
     <!-- theta=0.2 -->
     <g transform="translate(354.977813 58.070438) scale(0.1 -0.1)">
      <defs>
       <path id="DejaVuSans-74" d="M 1172 4494 
L 1172 3500 
L 2356 3500 
L 2356 3053 
L 1172 3053 
L 1172 1153 
Q 1172 725 1289 603 
Q 1406 481 1766 481 
L 2356 481 
L 2356 0 
L 1766 0 
Q 1100 0 847 248 
Q 594 497 594 1153 
L 594 3053 
L 172 3053 
L 172 3500 
L 594 3500 
L 594 4494 
L 1172 4494 
z
" transform="scale(0.015625)"/>
       <path id="DejaVuSans-68" d="M 3513 2113 
L 3513 0 
L 2938 0 
L 2938 2094 
Q 2938 2591 2744 2837 
Q 2550 3084 2163 3084 
Q 1697 3084 1428 2787 
Q 1159 2491 1159 1978 
L 1159 0 
L 581 0 
L 581 4863 
L 1159 4863 
L 1159 2956 
Q 1366 3272 1645 3428 
Q 1925 3584 2291 3584 
Q 2894 3584 3203 3211 
Q 3513 2838 3513 2113 
z
" transform="scale(0.015625)"/>
       <path id="DejaVuSans-65" d="M 3597 1894 
L 3597 1613 
L 953 1613 
Q 991 1019 1311 708 
Q 1631 397 2203 397 
Q 2534 397 2845 478 
Q 3156 559 3463 722 
L 3463 178 
Q 3153 47 2828 -22 
Q 2503 -91 2169 -91 
Q 1331 -91 842 396 
Q 353 884 353 1716 
Q 353 2575 817 3079 
Q 1281 3584 2069 3584 
Q 2775 3584 3186 3129 
Q 3597 2675 3597 1894 
z
M 3022 2063 
Q 3016 2534 2758 2815 
Q 2500 3097 2075 3097 
Q 1594 3097 1305 2825 
Q 1016 2553 972 2059 
L 3022 2063 
z
" transform="scale(0.015625)"/>
       <path id="DejaVuSans-3d" d="M 678 2906 
L 4684 2906 
L 4684 2381 
L 678 2381 
L 678 2906 
z
M 678 1631 
L 4684 1631 
L 4684 1100 
L 678 1100 
L 678 1631 
z
" transform="scale(0.015625)"/>
       <path id="DejaVuSans-2e" d="M 684 794 
L 1344 794 
L 1344 0 
L 684 0 
L 684 794 
z
" transform="scale(0.015625)"/>
      </defs>
      <use xlink:href="#DejaVuSans-74"/>
      <use xlink:href="#DejaVuSans-68" x="39.208984"/>
      <use xlink:href="#DejaVuSans-65" x="102.587891"/>
      <use xlink:href="#DejaVuSans-74" x="164.111328"/>
      <use xlink:href="#DejaVuSans-61" x="203.320312"/>
      <use xlink:href="#DejaVuSans-3d" x="264.599609"/>
      <use xlink:href="#DejaVuSans-30" x="348.388672"/>
      <use xlink:href="#DejaVuSans-2e" x="412.011719"/>
      <use xlink:href="#DejaVuSans-32" x="443.798828"/>
     </g>
    </g>
    <g id="line2d_135">
     <path d="M 326.977813 69.248563 
L 336.977813 69.248563 
L 346.977813 69.248563 
" style="fill: none; stroke: #ff7f0e; stroke-width: 1.5; stroke-linecap: square"/>
    </g>
    <g id="text_17">
     <!-- theta=0.3 -->
     <g transform="translate(354.977813 72.748563) scale(0.1 -0.1)">
      <use xlink:href="#DejaVuSans-74"/>
      <use xlink:href="#DejaVuSans-68" x="39.208984"/>
      <use xlink:href="#DejaVuSans-65" x="102.587891"/>
      <use xlink:href="#DejaVuSans-74" x="164.111328"/>
      <use xlink:href="#DejaVuSans-61" x="203.320312"/>
      <use xlink:href="#DejaVuSans-3d" x="264.599609"/>
      <use xlink:href="#DejaVuSans-30" x="348.388672"/>
      <use xlink:href="#DejaVuSans-2e" x="412.011719"/>
      <use xlink:href="#DejaVuSans-33" x="443.798828"/>
     </g>
    </g>
    <g id="line2d_136">
     <path d="M 326.977813 83.926688 
L 336.977813 83.926688 
L 346.977813 83.926688 
" style="fill: none; stroke: #2ca02c; stroke-width: 1.5; stroke-linecap: square"/>
    </g>
    <g id="text_18">
     <!-- theta=0.4 -->
     <g transform="translate(354.977813 87.426688) scale(0.1 -0.1)">
      <use xlink:href="#DejaVuSans-74"/>
      <use xlink:href="#DejaVuSans-68" x="39.208984"/>
      <use xlink:href="#DejaVuSans-65" x="102.587891"/>
      <use xlink:href="#DejaVuSans-74" x="164.111328"/>
      <use xlink:href="#DejaVuSans-61" x="203.320312"/>
      <use xlink:href="#DejaVuSans-3d" x="264.599609"/>
      <use xlink:href="#DejaVuSans-30" x="348.388672"/>
      <use xlink:href="#DejaVuSans-2e" x="412.011719"/>
      <use xlink:href="#DejaVuSans-34" x="443.798828"/>
     </g>
    </g>
    <g id="line2d_137">
     <path d="M 326.977813 98.604813 
L 336.977813 98.604813 
L 346.977813 98.604813 
" style="fill: none; stroke: #d62728; stroke-width: 1.5; stroke-linecap: square"/>
    </g>
    <g id="text_19">
     <!-- theta=0.5 -->
     <g transform="translate(354.977813 102.104813) scale(0.1 -0.1)">
      <use xlink:href="#DejaVuSans-74"/>
      <use xlink:href="#DejaVuSans-68" x="39.208984"/>
      <use xlink:href="#DejaVuSans-65" x="102.587891"/>
      <use xlink:href="#DejaVuSans-74" x="164.111328"/>
      <use xlink:href="#DejaVuSans-61" x="203.320312"/>
      <use xlink:href="#DejaVuSans-3d" x="264.599609"/>
      <use xlink:href="#DejaVuSans-30" x="348.388672"/>
      <use xlink:href="#DejaVuSans-2e" x="412.011719"/>
      <use xlink:href="#DejaVuSans-35" x="443.798828"/>
     </g>
    </g>
    <g id="line2d_138">
     <path d="M 326.977813 113.282938 
L 336.977813 113.282938 
L 346.977813 113.282938 
" style="fill: none; stroke: #9467bd; stroke-width: 1.5; stroke-linecap: square"/>
    </g>
    <g id="text_20">
     <!-- theta=0.6 -->
     <g transform="translate(354.977813 116.782938) scale(0.1 -0.1)">
      <use xlink:href="#DejaVuSans-74"/>
      <use xlink:href="#DejaVuSans-68" x="39.208984"/>
      <use xlink:href="#DejaVuSans-65" x="102.587891"/>
      <use xlink:href="#DejaVuSans-74" x="164.111328"/>
      <use xlink:href="#DejaVuSans-61" x="203.320312"/>
      <use xlink:href="#DejaVuSans-3d" x="264.599609"/>
      <use xlink:href="#DejaVuSans-30" x="348.388672"/>
      <use xlink:href="#DejaVuSans-2e" x="412.011719"/>
      <use xlink:href="#DejaVuSans-36" x="443.798828"/>
     </g>
    </g>
    <g id="line2d_139">
     <path d="M 326.977813 127.961063 
L 336.977813 127.961063 
L 346.977813 127.961063 
" style="fill: none; stroke: #8c564b; stroke-width: 1.5; stroke-linecap: square"/>
    </g>
    <g id="text_21">
     <!-- theta=0.7 -->
     <g transform="translate(354.977813 131.461063) scale(0.1 -0.1)">
      <use xlink:href="#DejaVuSans-74"/>
      <use xlink:href="#DejaVuSans-68" x="39.208984"/>
      <use xlink:href="#DejaVuSans-65" x="102.587891"/>
      <use xlink:href="#DejaVuSans-74" x="164.111328"/>
      <use xlink:href="#DejaVuSans-61" x="203.320312"/>
      <use xlink:href="#DejaVuSans-3d" x="264.599609"/>
      <use xlink:href="#DejaVuSans-30" x="348.388672"/>
      <use xlink:href="#DejaVuSans-2e" x="412.011719"/>
      <use xlink:href="#DejaVuSans-37" x="443.798828"/>
     </g>
    </g>
    <g id="line2d_140">
     <path d="M 326.977813 142.639188 
L 336.977813 142.639188 
L 346.977813 142.639188 
" style="fill: none; stroke: #e377c2; stroke-width: 1.5; stroke-linecap: square"/>
    </g>
    <g id="text_22">
     <!-- theta=0.8 -->
     <g transform="translate(354.977813 146.139188) scale(0.1 -0.1)">
      <defs>
       <path id="DejaVuSans-38" d="M 2034 2216 
Q 1584 2216 1326 1975 
Q 1069 1734 1069 1313 
Q 1069 891 1326 650 
Q 1584 409 2034 409 
Q 2484 409 2743 651 
Q 3003 894 3003 1313 
Q 3003 1734 2745 1975 
Q 2488 2216 2034 2216 
z
M 1403 2484 
Q 997 2584 770 2862 
Q 544 3141 544 3541 
Q 544 4100 942 4425 
Q 1341 4750 2034 4750 
Q 2731 4750 3128 4425 
Q 3525 4100 3525 3541 
Q 3525 3141 3298 2862 
Q 3072 2584 2669 2484 
Q 3125 2378 3379 2068 
Q 3634 1759 3634 1313 
Q 3634 634 3220 271 
Q 2806 -91 2034 -91 
Q 1263 -91 848 271 
Q 434 634 434 1313 
Q 434 1759 690 2068 
Q 947 2378 1403 2484 
z
M 1172 3481 
Q 1172 3119 1398 2916 
Q 1625 2713 2034 2713 
Q 2441 2713 2670 2916 
Q 2900 3119 2900 3481 
Q 2900 3844 2670 4047 
Q 2441 4250 2034 4250 
Q 1625 4250 1398 4047 
Q 1172 3844 1172 3481 
z
" transform="scale(0.015625)"/>
      </defs>
      <use xlink:href="#DejaVuSans-74"/>
      <use xlink:href="#DejaVuSans-68" x="39.208984"/>
      <use xlink:href="#DejaVuSans-65" x="102.587891"/>
      <use xlink:href="#DejaVuSans-74" x="164.111328"/>
      <use xlink:href="#DejaVuSans-61" x="203.320312"/>
      <use xlink:href="#DejaVuSans-3d" x="264.599609"/>
      <use xlink:href="#DejaVuSans-30" x="348.388672"/>
      <use xlink:href="#DejaVuSans-2e" x="412.011719"/>
      <use xlink:href="#DejaVuSans-38" x="443.798828"/>
     </g>
    </g>
   </g>
  </g>
  <g id="text_23">
   <!-- Acceleration error distribution, N=10480  -->
   <g transform="translate(106.262813 16.030125) scale(0.12 -0.12)">
    <defs>
     <path id="DejaVuSans-41" d="M 2188 4044 
L 1331 1722 
L 3047 1722 
L 2188 4044 
z
M 1831 4666 
L 2547 4666 
L 4325 0 
L 3669 0 
L 3244 1197 
L 1141 1197 
L 716 0 
L 50 0 
L 1831 4666 
z
" transform="scale(0.015625)"/>
     <path id="DejaVuSans-63" d="M 3122 3366 
L 3122 2828 
Q 2878 2963 2633 3030 
Q 2388 3097 2138 3097 
Q 1578 3097 1268 2742 
Q 959 2388 959 1747 
Q 959 1106 1268 751 
Q 1578 397 2138 397 
Q 2388 397 2633 464 
Q 2878 531 3122 666 
L 3122 134 
Q 2881 22 2623 -34 
Q 2366 -91 2075 -91 
Q 1284 -91 818 406 
Q 353 903 353 1747 
Q 353 2603 823 3093 
Q 1294 3584 2113 3584 
Q 2378 3584 2631 3529 
Q 2884 3475 3122 3366 
z
" transform="scale(0.015625)"/>
     <path id="DejaVuSans-6c" d="M 603 4863 
L 1178 4863 
L 1178 0 
L 603 0 
L 603 4863 
z
" transform="scale(0.015625)"/>
     <path id="DejaVuSans-72" d="M 2631 2963 
Q 2534 3019 2420 3045 
Q 2306 3072 2169 3072 
Q 1681 3072 1420 2755 
Q 1159 2438 1159 1844 
L 1159 0 
L 581 0 
L 581 3500 
L 1159 3500 
L 1159 2956 
Q 1341 3275 1631 3429 
Q 1922 3584 2338 3584 
Q 2397 3584 2469 3576 
Q 2541 3569 2628 3553 
L 2631 2963 
z
" transform="scale(0.015625)"/>
     <path id="DejaVuSans-69" d="M 603 3500 
L 1178 3500 
L 1178 0 
L 603 0 
L 603 3500 
z
M 603 4863 
L 1178 4863 
L 1178 4134 
L 603 4134 
L 603 4863 
z
" transform="scale(0.015625)"/>
     <path id="DejaVuSans-6f" d="M 1959 3097 
Q 1497 3097 1228 2736 
Q 959 2375 959 1747 
Q 959 1119 1226 758 
Q 1494 397 1959 397 
Q 2419 397 2687 759 
Q 2956 1122 2956 1747 
Q 2956 2369 2687 2733 
Q 2419 3097 1959 3097 
z
M 1959 3584 
Q 2709 3584 3137 3096 
Q 3566 2609 3566 1747 
Q 3566 888 3137 398 
Q 2709 -91 1959 -91 
Q 1206 -91 779 398 
Q 353 888 353 1747 
Q 353 2609 779 3096 
Q 1206 3584 1959 3584 
z
" transform="scale(0.015625)"/>
     <path id="DejaVuSans-6e" d="M 3513 2113 
L 3513 0 
L 2938 0 
L 2938 2094 
Q 2938 2591 2744 2837 
Q 2550 3084 2163 3084 
Q 1697 3084 1428 2787 
Q 1159 2491 1159 1978 
L 1159 0 
L 581 0 
L 581 3500 
L 1159 3500 
L 1159 2956 
Q 1366 3272 1645 3428 
Q 1925 3584 2291 3584 
Q 2894 3584 3203 3211 
Q 3513 2838 3513 2113 
z
" transform="scale(0.015625)"/>
     <path id="DejaVuSans-20" transform="scale(0.015625)"/>
     <path id="DejaVuSans-64" d="M 2906 2969 
L 2906 4863 
L 3481 4863 
L 3481 0 
L 2906 0 
L 2906 525 
Q 2725 213 2448 61 
Q 2172 -91 1784 -91 
Q 1150 -91 751 415 
Q 353 922 353 1747 
Q 353 2572 751 3078 
Q 1150 3584 1784 3584 
Q 2172 3584 2448 3432 
Q 2725 3281 2906 2969 
z
M 947 1747 
Q 947 1113 1208 752 
Q 1469 391 1925 391 
Q 2381 391 2643 752 
Q 2906 1113 2906 1747 
Q 2906 2381 2643 2742 
Q 2381 3103 1925 3103 
Q 1469 3103 1208 2742 
Q 947 2381 947 1747 
z
" transform="scale(0.015625)"/>
     <path id="DejaVuSans-73" d="M 2834 3397 
L 2834 2853 
Q 2591 2978 2328 3040 
Q 2066 3103 1784 3103 
Q 1356 3103 1142 2972 
Q 928 2841 928 2578 
Q 928 2378 1081 2264 
Q 1234 2150 1697 2047 
L 1894 2003 
Q 2506 1872 2764 1633 
Q 3022 1394 3022 966 
Q 3022 478 2636 193 
Q 2250 -91 1575 -91 
Q 1294 -91 989 -36 
Q 684 19 347 128 
L 347 722 
Q 666 556 975 473 
Q 1284 391 1588 391 
Q 1994 391 2212 530 
Q 2431 669 2431 922 
Q 2431 1156 2273 1281 
Q 2116 1406 1581 1522 
L 1381 1569 
Q 847 1681 609 1914 
Q 372 2147 372 2553 
Q 372 3047 722 3315 
Q 1072 3584 1716 3584 
Q 2034 3584 2315 3537 
Q 2597 3491 2834 3397 
z
" transform="scale(0.015625)"/>
     <path id="DejaVuSans-62" d="M 3116 1747 
Q 3116 2381 2855 2742 
Q 2594 3103 2138 3103 
Q 1681 3103 1420 2742 
Q 1159 2381 1159 1747 
Q 1159 1113 1420 752 
Q 1681 391 2138 391 
Q 2594 391 2855 752 
Q 3116 1113 3116 1747 
z
M 1159 2969 
Q 1341 3281 1617 3432 
Q 1894 3584 2278 3584 
Q 2916 3584 3314 3078 
Q 3713 2572 3713 1747 
Q 3713 922 3314 415 
Q 2916 -91 2278 -91 
Q 1894 -91 1617 61 
Q 1341 213 1159 525 
L 1159 0 
L 581 0 
L 581 4863 
L 1159 4863 
L 1159 2969 
z
" transform="scale(0.015625)"/>
     <path id="DejaVuSans-75" d="M 544 1381 
L 544 3500 
L 1119 3500 
L 1119 1403 
Q 1119 906 1312 657 
Q 1506 409 1894 409 
Q 2359 409 2629 706 
Q 2900 1003 2900 1516 
L 2900 3500 
L 3475 3500 
L 3475 0 
L 2900 0 
L 2900 538 
Q 2691 219 2414 64 
Q 2138 -91 1772 -91 
Q 1169 -91 856 284 
Q 544 659 544 1381 
z
M 1991 3584 
L 1991 3584 
z
" transform="scale(0.015625)"/>
     <path id="DejaVuSans-2c" d="M 750 794 
L 1409 794 
L 1409 256 
L 897 -744 
L 494 -744 
L 750 256 
L 750 794 
z
" transform="scale(0.015625)"/>
     <path id="DejaVuSans-4e" d="M 628 4666 
L 1478 4666 
L 3547 763 
L 3547 4666 
L 4159 4666 
L 4159 0 
L 3309 0 
L 1241 3903 
L 1241 0 
L 628 0 
L 628 4666 
z
" transform="scale(0.015625)"/>
    </defs>
    <use xlink:href="#DejaVuSans-41"/>
    <use xlink:href="#DejaVuSans-63" x="66.658203"/>
    <use xlink:href="#DejaVuSans-63" x="121.638672"/>
    <use xlink:href="#DejaVuSans-65" x="176.619141"/>
    <use xlink:href="#DejaVuSans-6c" x="238.142578"/>
    <use xlink:href="#DejaVuSans-65" x="265.925781"/>
    <use xlink:href="#DejaVuSans-72" x="327.449219"/>
    <use xlink:href="#DejaVuSans-61" x="368.5625"/>
    <use xlink:href="#DejaVuSans-74" x="429.841797"/>
    <use xlink:href="#DejaVuSans-69" x="469.050781"/>
    <use xlink:href="#DejaVuSans-6f" x="496.833984"/>
    <use xlink:href="#DejaVuSans-6e" x="558.015625"/>
    <use xlink:href="#DejaVuSans-20" x="621.394531"/>
    <use xlink:href="#DejaVuSans-65" x="653.181641"/>
    <use xlink:href="#DejaVuSans-72" x="714.705078"/>
    <use xlink:href="#DejaVuSans-72" x="754.068359"/>
    <use xlink:href="#DejaVuSans-6f" x="792.931641"/>
    <use xlink:href="#DejaVuSans-72" x="854.113281"/>
    <use xlink:href="#DejaVuSans-20" x="895.226562"/>
    <use xlink:href="#DejaVuSans-64" x="927.013672"/>
    <use xlink:href="#DejaVuSans-69" x="990.490234"/>
    <use xlink:href="#DejaVuSans-73" x="1018.273438"/>
    <use xlink:href="#DejaVuSans-74" x="1070.373047"/>
    <use xlink:href="#DejaVuSans-72" x="1109.582031"/>
    <use xlink:href="#DejaVuSans-69" x="1150.695312"/>
    <use xlink:href="#DejaVuSans-62" x="1178.478516"/>
    <use xlink:href="#DejaVuSans-75" x="1241.955078"/>
    <use xlink:href="#DejaVuSans-74" x="1305.333984"/>
    <use xlink:href="#DejaVuSans-69" x="1344.542969"/>
    <use xlink:href="#DejaVuSans-6f" x="1372.326172"/>
    <use xlink:href="#DejaVuSans-6e" x="1433.507812"/>
    <use xlink:href="#DejaVuSans-2c" x="1496.886719"/>
    <use xlink:href="#DejaVuSans-20" x="1528.673828"/>
    <use xlink:href="#DejaVuSans-4e" x="1560.460938"/>
    <use xlink:href="#DejaVuSans-3d" x="1635.265625"/>
    <use xlink:href="#DejaVuSans-31" x="1719.054688"/>
    <use xlink:href="#DejaVuSans-30" x="1782.677734"/>
    <use xlink:href="#DejaVuSans-34" x="1846.300781"/>
    <use xlink:href="#DejaVuSans-38" x="1909.923828"/>
    <use xlink:href="#DejaVuSans-30" x="1973.546875"/>
    <use xlink:href="#DejaVuSans-20" x="2037.169922"/>
   </g>
  </g>
 </g>
 <defs>
  <clipPath id="p537e6fdafe">
   <rect x="57.6" y="41.472" width="357.12" height="266.112"/>
  </clipPath>
 </defs>
</svg>
