<?xml version="1.0" encoding="utf-8" standalone="no"?>
<!DOCTYPE svg PUBLIC "-//W3C//DTD SVG 1.1//EN"
  "http://www.w3.org/Graphics/SVG/1.1/DTD/svg11.dtd">
<svg xmlns:xlink="http://www.w3.org/1999/xlink" width="864pt" height="360pt" viewBox="0 0 864 360" xmlns="http://www.w3.org/2000/svg" version="1.1">
 <metadata>
  <rdf:RDF xmlns:dc="http://purl.org/dc/elements/1.1/" xmlns:cc="http://creativecommons.org/ns#" xmlns:rdf="http://www.w3.org/1999/02/22-rdf-syntax-ns#">
   <cc:Work>
    <dc:type rdf:resource="http://purl.org/dc/dcmitype/StillImage"/>
    <dc:date>2023-07-12T10:18:27.454497</dc:date>
    <dc:format>image/svg+xml</dc:format>
    <dc:creator>
     <cc:Agent>
      <dc:title>Matplotlib v3.7.1, https://matplotlib.org/</dc:title>
     </cc:Agent>
    </dc:creator>
   </cc:Work>
  </rdf:RDF>
 </metadata>
 <defs>
  <style type="text/css">*{stroke-linejoin: round; stroke-linecap: butt}</style>
 </defs>
 <g id="figure_1">
  <g id="patch_1">
   <path d="M 0 360 
L 864 360 
L 864 0 
L 0 0 
z
" style="fill: #ffffff"/>
  </g>
  <g id="axes_1">
   <g id="patch_2">
    <path d="M 108 320.4 
L 777.6 320.4 
L 777.6 43.2 
L 108 43.2 
z
" style="fill: #ffffff"/>
   </g>
   <g id="matplotlib.axis_1">
    <g id="xtick_1">
     <g id="line2d_1">
      <path d="M 138.436364 320.4 
L 138.436364 43.2 
" clip-path="url(#pc091e0c0d1)" style="fill: none; stroke: #b0b0b0; stroke-linecap: square"/>
     </g>
     <g id="line2d_2">
      <defs>
       <path id="m5464f0a5a7" d="M 0 0 
L 0 3.5 
" style="stroke: #000000; stroke-width: 0.8"/>
      </defs>
      <g>
       <use xlink:href="#m5464f0a5a7" x="138.436364" y="320.4" style="stroke: #000000; stroke-width: 0.8"/>
      </g>
     </g>
     <g id="text_1">
      <!-- $\mathdefault{0}$ -->
      <g transform="translate(135.236364 334.998438) scale(0.1 -0.1)">
       <defs>
        <path id="DejaVuSans-30" d="M 2034 4250 
Q 1547 4250 1301 3770 
Q 1056 3291 1056 2328 
Q 1056 1369 1301 889 
Q 1547 409 2034 409 
Q 2525 409 2770 889 
Q 3016 1369 3016 2328 
Q 3016 3291 2770 3770 
Q 2525 4250 2034 4250 
z
M 2034 4750 
Q 2819 4750 3233 4129 
Q 3647 3509 3647 2328 
Q 3647 1150 3233 529 
Q 2819 -91 2034 -91 
Q 1250 -91 836 529 
Q 422 1150 422 2328 
Q 422 3509 836 4129 
Q 1250 4750 2034 4750 
z
" transform="scale(0.015625)"/>
       </defs>
       <use xlink:href="#DejaVuSans-30" transform="translate(0 0.78125)"/>
      </g>
     </g>
    </g>
    <g id="xtick_2">
     <g id="line2d_3">
      <path d="M 235.299897 320.4 
L 235.299897 43.2 
" clip-path="url(#pc091e0c0d1)" style="fill: none; stroke: #b0b0b0; stroke-linecap: square"/>
     </g>
     <g id="line2d_4">
      <g>
       <use xlink:href="#m5464f0a5a7" x="235.299897" y="320.4" style="stroke: #000000; stroke-width: 0.8"/>
      </g>
     </g>
     <g id="text_2">
      <!-- $\mathdefault{10^{0}}$ -->
      <g transform="translate(226.499897 334.998438) scale(0.1 -0.1)">
       <defs>
        <path id="DejaVuSans-31" d="M 794 531 
L 1825 531 
L 1825 4091 
L 703 3866 
L 703 4441 
L 1819 4666 
L 2450 4666 
L 2450 531 
L 3481 531 
L 3481 0 
L 794 0 
L 794 531 
z
" transform="scale(0.015625)"/>
       </defs>
       <use xlink:href="#DejaVuSans-31" transform="translate(0 0.765625)"/>
       <use xlink:href="#DejaVuSans-30" transform="translate(63.623047 0.765625)"/>
       <use xlink:href="#DejaVuSans-30" transform="translate(128.203125 39.046875) scale(0.7)"/>
      </g>
     </g>
    </g>
    <g id="xtick_3">
     <g id="line2d_5">
      <path d="M 454.031897 320.4 
L 454.031897 43.2 
" clip-path="url(#pc091e0c0d1)" style="fill: none; stroke: #b0b0b0; stroke-linecap: square"/>
     </g>
     <g id="line2d_6">
      <g>
       <use xlink:href="#m5464f0a5a7" x="454.031897" y="320.4" style="stroke: #000000; stroke-width: 0.8"/>
      </g>
     </g>
     <g id="text_3">
      <!-- $\mathdefault{10^{1}}$ -->
      <g transform="translate(445.231897 334.998438) scale(0.1 -0.1)">
       <use xlink:href="#DejaVuSans-31" transform="translate(0 0.684375)"/>
       <use xlink:href="#DejaVuSans-30" transform="translate(63.623047 0.684375)"/>
       <use xlink:href="#DejaVuSans-31" transform="translate(128.203125 38.965625) scale(0.7)"/>
      </g>
     </g>
    </g>
    <g id="xtick_4">
     <g id="line2d_7">
      <path d="M 628.386257 320.4 
L 628.386257 43.2 
" clip-path="url(#pc091e0c0d1)" style="fill: none; stroke: #b0b0b0; stroke-linecap: square"/>
     </g>
     <g id="line2d_8">
      <g>
       <use xlink:href="#m5464f0a5a7" x="628.386257" y="320.4" style="stroke: #000000; stroke-width: 0.8"/>
      </g>
     </g>
     <g id="text_4">
      <!-- $\mathdefault{10^{2}}$ -->
      <g transform="translate(619.586257 334.998438) scale(0.1 -0.1)">
       <defs>
        <path id="DejaVuSans-32" d="M 1228 531 
L 3431 531 
L 3431 0 
L 469 0 
L 469 531 
Q 828 903 1448 1529 
Q 2069 2156 2228 2338 
Q 2531 2678 2651 2914 
Q 2772 3150 2772 3378 
Q 2772 3750 2511 3984 
Q 2250 4219 1831 4219 
Q 1534 4219 1204 4116 
Q 875 4013 500 3803 
L 500 4441 
Q 881 4594 1212 4672 
Q 1544 4750 1819 4750 
Q 2544 4750 2975 4387 
Q 3406 4025 3406 3419 
Q 3406 3131 3298 2873 
Q 3191 2616 2906 2266 
Q 2828 2175 2409 1742 
Q 1991 1309 1228 531 
z
" transform="scale(0.015625)"/>
       </defs>
       <use xlink:href="#DejaVuSans-31" transform="translate(0 0.765625)"/>
       <use xlink:href="#DejaVuSans-30" transform="translate(63.623047 0.765625)"/>
       <use xlink:href="#DejaVuSans-32" transform="translate(128.203125 39.046875) scale(0.7)"/>
      </g>
     </g>
    </g>
    <g id="text_5">
     <!-- time (s) -->
     <g transform="translate(423.408594 348.676562) scale(0.1 -0.1)">
      <defs>
       <path id="DejaVuSans-74" d="M 1172 4494 
L 1172 3500 
L 2356 3500 
L 2356 3053 
L 1172 3053 
L 1172 1153 
Q 1172 725 1289 603 
Q 1406 481 1766 481 
L 2356 481 
L 2356 0 
L 1766 0 
Q 1100 0 847 248 
Q 594 497 594 1153 
L 594 3053 
L 172 3053 
L 172 3500 
L 594 3500 
L 594 4494 
L 1172 4494 
z
" transform="scale(0.015625)"/>
       <path id="DejaVuSans-69" d="M 603 3500 
L 1178 3500 
L 1178 0 
L 603 0 
L 603 3500 
z
M 603 4863 
L 1178 4863 
L 1178 4134 
L 603 4134 
L 603 4863 
z
" transform="scale(0.015625)"/>
       <path id="DejaVuSans-6d" d="M 3328 2828 
Q 3544 3216 3844 3400 
Q 4144 3584 4550 3584 
Q 5097 3584 5394 3201 
Q 5691 2819 5691 2113 
L 5691 0 
L 5113 0 
L 5113 2094 
Q 5113 2597 4934 2840 
Q 4756 3084 4391 3084 
Q 3944 3084 3684 2787 
Q 3425 2491 3425 1978 
L 3425 0 
L 2847 0 
L 2847 2094 
Q 2847 2600 2669 2842 
Q 2491 3084 2119 3084 
Q 1678 3084 1418 2786 
Q 1159 2488 1159 1978 
L 1159 0 
L 581 0 
L 581 3500 
L 1159 3500 
L 1159 2956 
Q 1356 3278 1631 3431 
Q 1906 3584 2284 3584 
Q 2666 3584 2933 3390 
Q 3200 3197 3328 2828 
z
" transform="scale(0.015625)"/>
       <path id="DejaVuSans-65" d="M 3597 1894 
L 3597 1613 
L 953 1613 
Q 991 1019 1311 708 
Q 1631 397 2203 397 
Q 2534 397 2845 478 
Q 3156 559 3463 722 
L 3463 178 
Q 3153 47 2828 -22 
Q 2503 -91 2169 -91 
Q 1331 -91 842 396 
Q 353 884 353 1716 
Q 353 2575 817 3079 
Q 1281 3584 2069 3584 
Q 2775 3584 3186 3129 
Q 3597 2675 3597 1894 
z
M 3022 2063 
Q 3016 2534 2758 2815 
Q 2500 3097 2075 3097 
Q 1594 3097 1305 2825 
Q 1016 2553 972 2059 
L 3022 2063 
z
" transform="scale(0.015625)"/>
       <path id="DejaVuSans-20" transform="scale(0.015625)"/>
       <path id="DejaVuSans-28" d="M 1984 4856 
Q 1566 4138 1362 3434 
Q 1159 2731 1159 2009 
Q 1159 1288 1364 580 
Q 1569 -128 1984 -844 
L 1484 -844 
Q 1016 -109 783 600 
Q 550 1309 550 2009 
Q 550 2706 781 3412 
Q 1013 4119 1484 4856 
L 1984 4856 
z
" transform="scale(0.015625)"/>
       <path id="DejaVuSans-73" d="M 2834 3397 
L 2834 2853 
Q 2591 2978 2328 3040 
Q 2066 3103 1784 3103 
Q 1356 3103 1142 2972 
Q 928 2841 928 2578 
Q 928 2378 1081 2264 
Q 1234 2150 1697 2047 
L 1894 2003 
Q 2506 1872 2764 1633 
Q 3022 1394 3022 966 
Q 3022 478 2636 193 
Q 2250 -91 1575 -91 
Q 1294 -91 989 -36 
Q 684 19 347 128 
L 347 722 
Q 666 556 975 473 
Q 1284 391 1588 391 
Q 1994 391 2212 530 
Q 2431 669 2431 922 
Q 2431 1156 2273 1281 
Q 2116 1406 1581 1522 
L 1381 1569 
Q 847 1681 609 1914 
Q 372 2147 372 2553 
Q 372 3047 722 3315 
Q 1072 3584 1716 3584 
Q 2034 3584 2315 3537 
Q 2597 3491 2834 3397 
z
" transform="scale(0.015625)"/>
       <path id="DejaVuSans-29" d="M 513 4856 
L 1013 4856 
Q 1481 4119 1714 3412 
Q 1947 2706 1947 2009 
Q 1947 1309 1714 600 
Q 1481 -109 1013 -844 
L 513 -844 
Q 928 -128 1133 580 
Q 1338 1288 1338 2009 
Q 1338 2731 1133 3434 
Q 928 4138 513 4856 
z
" transform="scale(0.015625)"/>
      </defs>
      <use xlink:href="#DejaVuSans-74"/>
      <use xlink:href="#DejaVuSans-69" x="39.208984"/>
      <use xlink:href="#DejaVuSans-6d" x="66.992188"/>
      <use xlink:href="#DejaVuSans-65" x="164.404297"/>
      <use xlink:href="#DejaVuSans-20" x="225.927734"/>
      <use xlink:href="#DejaVuSans-28" x="257.714844"/>
      <use xlink:href="#DejaVuSans-73" x="296.728516"/>
      <use xlink:href="#DejaVuSans-29" x="348.828125"/>
     </g>
    </g>
   </g>
   <g id="matplotlib.axis_2">
    <g id="ytick_1">
     <g id="line2d_9">
      <path d="M 108 282.316854 
L 777.6 282.316854 
" clip-path="url(#pc091e0c0d1)" style="fill: none; stroke: #b0b0b0; stroke-linecap: square"/>
     </g>
     <g id="line2d_10">
      <defs>
       <path id="m85502bec2a" d="M 0 0 
L -3.5 0 
" style="stroke: #000000; stroke-width: 0.8"/>
      </defs>
      <g>
       <use xlink:href="#m85502bec2a" x="108" y="282.316854" style="stroke: #000000; stroke-width: 0.8"/>
      </g>
     </g>
     <g id="text_6">
      <!-- 20 -->
      <g transform="translate(88.275 286.116073) scale(0.1 -0.1)">
       <use xlink:href="#DejaVuSans-32"/>
       <use xlink:href="#DejaVuSans-30" x="63.623047"/>
      </g>
     </g>
    </g>
    <g id="ytick_2">
     <g id="line2d_11">
      <path d="M 108 225.68764 
L 777.6 225.68764 
" clip-path="url(#pc091e0c0d1)" style="fill: none; stroke: #b0b0b0; stroke-linecap: square"/>
     </g>
     <g id="line2d_12">
      <g>
       <use xlink:href="#m85502bec2a" x="108" y="225.68764" style="stroke: #000000; stroke-width: 0.8"/>
      </g>
     </g>
     <g id="text_7">
      <!-- 40 -->
      <g transform="translate(88.275 229.486859) scale(0.1 -0.1)">
       <defs>
        <path id="DejaVuSans-34" d="M 2419 4116 
L 825 1625 
L 2419 1625 
L 2419 4116 
z
M 2253 4666 
L 3047 4666 
L 3047 1625 
L 3713 1625 
L 3713 1100 
L 3047 1100 
L 3047 0 
L 2419 0 
L 2419 1100 
L 313 1100 
L 313 1709 
L 2253 4666 
z
" transform="scale(0.015625)"/>
       </defs>
       <use xlink:href="#DejaVuSans-34"/>
       <use xlink:href="#DejaVuSans-30" x="63.623047"/>
      </g>
     </g>
    </g>
    <g id="ytick_3">
     <g id="line2d_13">
      <path d="M 108 169.058427 
L 777.6 169.058427 
" clip-path="url(#pc091e0c0d1)" style="fill: none; stroke: #b0b0b0; stroke-linecap: square"/>
     </g>
     <g id="line2d_14">
      <g>
       <use xlink:href="#m85502bec2a" x="108" y="169.058427" style="stroke: #000000; stroke-width: 0.8"/>
      </g>
     </g>
     <g id="text_8">
      <!-- 60 -->
      <g transform="translate(88.275 172.857646) scale(0.1 -0.1)">
       <defs>
        <path id="DejaVuSans-36" d="M 2113 2584 
Q 1688 2584 1439 2293 
Q 1191 2003 1191 1497 
Q 1191 994 1439 701 
Q 1688 409 2113 409 
Q 2538 409 2786 701 
Q 3034 994 3034 1497 
Q 3034 2003 2786 2293 
Q 2538 2584 2113 2584 
z
M 3366 4563 
L 3366 3988 
Q 3128 4100 2886 4159 
Q 2644 4219 2406 4219 
Q 1781 4219 1451 3797 
Q 1122 3375 1075 2522 
Q 1259 2794 1537 2939 
Q 1816 3084 2150 3084 
Q 2853 3084 3261 2657 
Q 3669 2231 3669 1497 
Q 3669 778 3244 343 
Q 2819 -91 2113 -91 
Q 1303 -91 875 529 
Q 447 1150 447 2328 
Q 447 3434 972 4092 
Q 1497 4750 2381 4750 
Q 2619 4750 2861 4703 
Q 3103 4656 3366 4563 
z
" transform="scale(0.015625)"/>
       </defs>
       <use xlink:href="#DejaVuSans-36"/>
       <use xlink:href="#DejaVuSans-30" x="63.623047"/>
      </g>
     </g>
    </g>
    <g id="ytick_4">
     <g id="line2d_15">
      <path d="M 108 112.429213 
L 777.6 112.429213 
" clip-path="url(#pc091e0c0d1)" style="fill: none; stroke: #b0b0b0; stroke-linecap: square"/>
     </g>
     <g id="line2d_16">
      <g>
       <use xlink:href="#m85502bec2a" x="108" y="112.429213" style="stroke: #000000; stroke-width: 0.8"/>
      </g>
     </g>
     <g id="text_9">
      <!-- 80 -->
      <g transform="translate(88.275 116.228432) scale(0.1 -0.1)">
       <defs>
        <path id="DejaVuSans-38" d="M 2034 2216 
Q 1584 2216 1326 1975 
Q 1069 1734 1069 1313 
Q 1069 891 1326 650 
Q 1584 409 2034 409 
Q 2484 409 2743 651 
Q 3003 894 3003 1313 
Q 3003 1734 2745 1975 
Q 2488 2216 2034 2216 
z
M 1403 2484 
Q 997 2584 770 2862 
Q 544 3141 544 3541 
Q 544 4100 942 4425 
Q 1341 4750 2034 4750 
Q 2731 4750 3128 4425 
Q 3525 4100 3525 3541 
Q 3525 3141 3298 2862 
Q 3072 2584 2669 2484 
Q 3125 2378 3379 2068 
Q 3634 1759 3634 1313 
Q 3634 634 3220 271 
Q 2806 -91 2034 -91 
Q 1263 -91 848 271 
Q 434 634 434 1313 
Q 434 1759 690 2068 
Q 947 2378 1403 2484 
z
M 1172 3481 
Q 1172 3119 1398 2916 
Q 1625 2713 2034 2713 
Q 2441 2713 2670 2916 
Q 2900 3119 2900 3481 
Q 2900 3844 2670 4047 
Q 2441 4250 2034 4250 
Q 1625 4250 1398 4047 
Q 1172 3844 1172 3481 
z
" transform="scale(0.015625)"/>
       </defs>
       <use xlink:href="#DejaVuSans-38"/>
       <use xlink:href="#DejaVuSans-30" x="63.623047"/>
      </g>
     </g>
    </g>
    <g id="ytick_5">
     <g id="line2d_17">
      <path d="M 108 55.8 
L 777.6 55.8 
" clip-path="url(#pc091e0c0d1)" style="fill: none; stroke: #b0b0b0; stroke-linecap: square"/>
     </g>
     <g id="line2d_18">
      <g>
       <use xlink:href="#m85502bec2a" x="108" y="55.8" style="stroke: #000000; stroke-width: 0.8"/>
      </g>
     </g>
     <g id="text_10">
      <!-- 100 -->
      <g transform="translate(81.9125 59.599219) scale(0.1 -0.1)">
       <use xlink:href="#DejaVuSans-31"/>
       <use xlink:href="#DejaVuSans-30" x="63.623047"/>
       <use xlink:href="#DejaVuSans-30" x="127.246094"/>
      </g>
     </g>
    </g>
    <g id="text_11">
     <!-- GPU Usage (%) -->
     <g transform="translate(75.832812 219.757812) rotate(-90) scale(0.1 -0.1)">
      <defs>
       <path id="DejaVuSans-47" d="M 3809 666 
L 3809 1919 
L 2778 1919 
L 2778 2438 
L 4434 2438 
L 4434 434 
Q 4069 175 3628 42 
Q 3188 -91 2688 -91 
Q 1594 -91 976 548 
Q 359 1188 359 2328 
Q 359 3472 976 4111 
Q 1594 4750 2688 4750 
Q 3144 4750 3555 4637 
Q 3966 4525 4313 4306 
L 4313 3634 
Q 3963 3931 3569 4081 
Q 3175 4231 2741 4231 
Q 1884 4231 1454 3753 
Q 1025 3275 1025 2328 
Q 1025 1384 1454 906 
Q 1884 428 2741 428 
Q 3075 428 3337 486 
Q 3600 544 3809 666 
z
" transform="scale(0.015625)"/>
       <path id="DejaVuSans-50" d="M 1259 4147 
L 1259 2394 
L 2053 2394 
Q 2494 2394 2734 2622 
Q 2975 2850 2975 3272 
Q 2975 3691 2734 3919 
Q 2494 4147 2053 4147 
L 1259 4147 
z
M 628 4666 
L 2053 4666 
Q 2838 4666 3239 4311 
Q 3641 3956 3641 3272 
Q 3641 2581 3239 2228 
Q 2838 1875 2053 1875 
L 1259 1875 
L 1259 0 
L 628 0 
L 628 4666 
z
" transform="scale(0.015625)"/>
       <path id="DejaVuSans-55" d="M 556 4666 
L 1191 4666 
L 1191 1831 
Q 1191 1081 1462 751 
Q 1734 422 2344 422 
Q 2950 422 3222 751 
Q 3494 1081 3494 1831 
L 3494 4666 
L 4128 4666 
L 4128 1753 
Q 4128 841 3676 375 
Q 3225 -91 2344 -91 
Q 1459 -91 1007 375 
Q 556 841 556 1753 
L 556 4666 
z
" transform="scale(0.015625)"/>
       <path id="DejaVuSans-61" d="M 2194 1759 
Q 1497 1759 1228 1600 
Q 959 1441 959 1056 
Q 959 750 1161 570 
Q 1363 391 1709 391 
Q 2188 391 2477 730 
Q 2766 1069 2766 1631 
L 2766 1759 
L 2194 1759 
z
M 3341 1997 
L 3341 0 
L 2766 0 
L 2766 531 
Q 2569 213 2275 61 
Q 1981 -91 1556 -91 
Q 1019 -91 701 211 
Q 384 513 384 1019 
Q 384 1609 779 1909 
Q 1175 2209 1959 2209 
L 2766 2209 
L 2766 2266 
Q 2766 2663 2505 2880 
Q 2244 3097 1772 3097 
Q 1472 3097 1187 3025 
Q 903 2953 641 2809 
L 641 3341 
Q 956 3463 1253 3523 
Q 1550 3584 1831 3584 
Q 2591 3584 2966 3190 
Q 3341 2797 3341 1997 
z
" transform="scale(0.015625)"/>
       <path id="DejaVuSans-67" d="M 2906 1791 
Q 2906 2416 2648 2759 
Q 2391 3103 1925 3103 
Q 1463 3103 1205 2759 
Q 947 2416 947 1791 
Q 947 1169 1205 825 
Q 1463 481 1925 481 
Q 2391 481 2648 825 
Q 2906 1169 2906 1791 
z
M 3481 434 
Q 3481 -459 3084 -895 
Q 2688 -1331 1869 -1331 
Q 1566 -1331 1297 -1286 
Q 1028 -1241 775 -1147 
L 775 -588 
Q 1028 -725 1275 -790 
Q 1522 -856 1778 -856 
Q 2344 -856 2625 -561 
Q 2906 -266 2906 331 
L 2906 616 
Q 2728 306 2450 153 
Q 2172 0 1784 0 
Q 1141 0 747 490 
Q 353 981 353 1791 
Q 353 2603 747 3093 
Q 1141 3584 1784 3584 
Q 2172 3584 2450 3431 
Q 2728 3278 2906 2969 
L 2906 3500 
L 3481 3500 
L 3481 434 
z
" transform="scale(0.015625)"/>
       <path id="DejaVuSans-25" d="M 4653 2053 
Q 4381 2053 4226 1822 
Q 4072 1591 4072 1178 
Q 4072 772 4226 539 
Q 4381 306 4653 306 
Q 4919 306 5073 539 
Q 5228 772 5228 1178 
Q 5228 1588 5073 1820 
Q 4919 2053 4653 2053 
z
M 4653 2450 
Q 5147 2450 5437 2106 
Q 5728 1763 5728 1178 
Q 5728 594 5436 251 
Q 5144 -91 4653 -91 
Q 4153 -91 3862 251 
Q 3572 594 3572 1178 
Q 3572 1766 3864 2108 
Q 4156 2450 4653 2450 
z
M 1428 4353 
Q 1159 4353 1004 4120 
Q 850 3888 850 3481 
Q 850 3069 1003 2837 
Q 1156 2606 1428 2606 
Q 1700 2606 1854 2837 
Q 2009 3069 2009 3481 
Q 2009 3884 1853 4118 
Q 1697 4353 1428 4353 
z
M 4250 4750 
L 4750 4750 
L 1831 -91 
L 1331 -91 
L 4250 4750 
z
M 1428 4750 
Q 1922 4750 2215 4408 
Q 2509 4066 2509 3481 
Q 2509 2891 2217 2550 
Q 1925 2209 1428 2209 
Q 931 2209 642 2551 
Q 353 2894 353 3481 
Q 353 4063 643 4406 
Q 934 4750 1428 4750 
z
" transform="scale(0.015625)"/>
      </defs>
      <use xlink:href="#DejaVuSans-47"/>
      <use xlink:href="#DejaVuSans-50" x="77.490234"/>
      <use xlink:href="#DejaVuSans-55" x="137.792969"/>
      <use xlink:href="#DejaVuSans-20" x="210.986328"/>
      <use xlink:href="#DejaVuSans-55" x="242.773438"/>
      <use xlink:href="#DejaVuSans-73" x="315.966797"/>
      <use xlink:href="#DejaVuSans-61" x="368.066406"/>
      <use xlink:href="#DejaVuSans-67" x="429.345703"/>
      <use xlink:href="#DejaVuSans-65" x="492.822266"/>
      <use xlink:href="#DejaVuSans-20" x="554.345703"/>
      <use xlink:href="#DejaVuSans-28" x="586.132812"/>
      <use xlink:href="#DejaVuSans-25" x="625.146484"/>
      <use xlink:href="#DejaVuSans-29" x="720.166016"/>
     </g>
    </g>
   </g>
   <g id="line2d_19">
    <path d="M 138.436364 254.002247 
L 186.86813 302.137079 
L 235.299897 268.159551 
L 283.731663 276.653933 
" clip-path="url(#pc091e0c0d1)" style="fill: none; stroke: #1f77b4; stroke-width: 1.5; stroke-linecap: square"/>
   </g>
   <g id="line2d_20">
    <path d="M 138.436364 282.316854 
L 186.86813 273.822472 
L 235.299897 273.822472 
L 283.731663 256.833708 
" clip-path="url(#pc091e0c0d1)" style="fill: none; stroke: #ff7f0e; stroke-width: 1.5; stroke-linecap: square"/>
   </g>
   <g id="line2d_21">
    <path d="M 138.436364 217.193258 
L 186.86813 254.002247 
L 235.299897 276.653933 
L 283.731663 270.991011 
L 332.16343 273.822472 
" clip-path="url(#pc091e0c0d1)" style="fill: none; stroke: #2ca02c; stroke-width: 1.5; stroke-linecap: square"/>
   </g>
   <g id="line2d_22">
    <path d="M 138.436364 237.013483 
L 186.86813 169.058427 
L 235.299897 282.316854 
L 283.731663 217.193258 
L 332.16343 282.316854 
L 349.060113 220.024719 
" clip-path="url(#pc091e0c0d1)" style="fill: none; stroke: #d62728; stroke-width: 1.5; stroke-linecap: square"/>
   </g>
   <g id="line2d_23">
    <path d="M 138.436364 276.653933 
L 186.86813 273.822472 
L 235.299897 273.822472 
L 283.731663 282.316854 
L 332.16343 129.417978 
L 349.060113 58.631461 
L 362.865708 55.8 
L 374.538173 55.8 
L 384.649322 55.8 
L 393.567987 55.8 
L 401.546005 61.462921 
L 408.763 55.8 
L 415.351601 55.8 
L 421.412525 55.8 
L 427.024065 55.8 
L 432.248284 55.8 
L 437.135214 55.8 
L 441.725779 55.8 
L 446.053879 55.8 
L 450.147911 58.631461 
L 454.031897 55.8 
L 457.726344 285.148315 
L 461.248892 61.462921 
L 464.61483 58.631461 
L 467.837493 61.462921 
L 470.92858 64.294382 
L 473.898417 55.8 
L 476.756158 55.8 
L 479.509957 55.8 
L 482.167112 55.8 
L 484.734176 61.462921 
L 487.217059 61.462921 
L 489.621106 55.8 
L 491.951171 55.8 
L 494.211671 58.631461 
L 496.406641 55.8 
L 498.539771 55.8 
L 500.614453 55.8 
L 502.633803 55.8 
L 504.600696 58.631461 
L 506.517789 186.047191 
L 508.387542 55.8 
L 510.212236 69.957303 
L 511.993992 67.125843 
L 513.734784 58.631461 
L 515.436455 61.462921 
L 517.100722 55.8 
L 518.729197 69.957303 
L 520.323385 58.631461 
L 521.884701 67.125843 
L 523.414473 58.631461 
L 524.91395 64.294382 
L 526.38431 58.631461 
L 527.82666 58.631461 
L 529.24205 61.462921 
L 530.631468 55.8 
L 531.995849 55.8 
L 533.336081 55.8 
L 534.653004 55.8 
L 535.947414 61.462921 
L 537.220068 208.698876 
L 538.471686 58.631461 
L 539.702951 61.462921 
L 540.914515 55.8 
L 542.106998 55.8 
L 543.280993 55.8 
L 544.437063 55.8 
L 545.575748 61.462921 
L 546.697563 61.462921 
L 547.803001 67.125843 
L 548.892533 58.631461 
L 549.966609 67.125843 
L 551.025663 64.294382 
L 552.070109 58.631461 
L 553.100345 58.631461 
L 554.116751 58.631461 
L 555.119695 61.462921 
L 556.109528 58.631461 
L 557.086588 55.8 
L 558.051202 231.350562 
L 559.003681 61.462921 
L 559.944329 58.631461 
L 560.873434 61.462921 
L 561.791277 67.125843 
L 562.698128 55.8 
L 563.594247 58.631461 
L 564.479884 61.462921 
L 565.355283 55.8 
L 566.220677 55.8 
L 567.076292 61.462921 
L 567.922347 55.8 
L 568.759053 61.462921 
L 569.586614 55.8 
L 570.405229 61.462921 
L 571.215089 64.294382 
L 572.016378 55.8 
L 572.809277 58.631461 
L 573.593959 64.294382 
L 574.370593 61.462921 
L 575.139342 282.316854 
L 575.900365 279.485393 
L 576.653815 290.811236 
L 577.399842 290.811236 
L 578.138591 296.474157 
L 578.870202 282.316854 
L 579.594811 265.32809 
" clip-path="url(#pc091e0c0d1)" style="fill: none; stroke: #9467bd; stroke-width: 1.5; stroke-linecap: square"/>
   </g>
   <g id="line2d_24">
    <path d="M 138.436364 270.991011 
L 186.86813 270.991011 
L 235.299897 273.822472 
L 283.731663 270.991011 
L 332.16343 279.485393 
L 349.060113 55.8 
L 401.546005 55.8 
L 408.763 58.631461 
L 415.351601 61.462921 
L 421.412525 61.462921 
L 427.024065 58.631461 
L 432.248284 58.631461 
L 437.135214 55.8 
L 441.725779 61.462921 
L 446.053879 55.8 
L 461.248892 55.8 
L 464.61483 58.631461 
L 467.837493 58.631461 
L 470.92858 55.8 
L 482.167112 55.8 
L 484.734176 64.294382 
L 487.217059 55.8 
L 491.951171 55.8 
L 494.211671 58.631461 
L 496.406641 55.8 
L 498.539771 58.631461 
L 500.614453 55.8 
L 502.633803 61.462921 
L 504.600696 55.8 
L 510.212236 55.8 
L 511.993992 64.294382 
L 513.734784 55.8 
L 517.100722 55.8 
L 518.729197 183.21573 
L 520.323385 118.092135 
L 521.884701 61.462921 
L 523.414473 55.8 
L 524.91395 55.8 
L 526.38431 61.462921 
L 527.82666 64.294382 
L 529.24205 55.8 
L 530.631468 55.8 
L 531.995849 58.631461 
L 533.336081 55.8 
L 535.947414 61.462921 
L 538.471686 55.8 
L 539.702951 55.8 
L 540.914515 67.125843 
L 542.106998 61.462921 
L 544.437063 55.8 
L 545.575748 61.462921 
L 546.697563 55.8 
L 549.966609 55.8 
L 551.025663 58.631461 
L 552.070109 55.8 
L 559.003681 55.8 
L 559.944329 58.631461 
L 560.873434 55.8 
L 564.479884 55.8 
L 565.355283 58.631461 
L 566.220677 58.631461 
L 567.076292 61.462921 
L 567.922347 55.8 
L 568.759053 55.8 
L 569.586614 58.631461 
L 570.405229 67.125843 
L 571.215089 58.631461 
L 572.016378 55.8 
L 572.809277 115.260674 
L 573.593959 58.631461 
L 575.139342 64.294382 
L 575.900365 58.631461 
L 576.653815 55.8 
L 577.399842 58.631461 
L 578.870202 58.631461 
L 579.594811 55.8 
L 581.023554 55.8 
L 582.425838 67.125843 
L 583.11736 55.8 
L 583.802624 67.125843 
L 584.481741 55.8 
L 585.154823 55.8 
L 585.821974 75.620225 
L 586.483298 55.8 
L 587.138896 58.631461 
L 587.788867 55.8 
L 588.433306 61.462921 
L 589.70596 67.125843 
L 590.334355 55.8 
L 590.957578 58.631461 
L 591.575713 55.8 
L 592.188843 58.631461 
L 592.797048 64.294382 
L 593.998996 58.631461 
L 594.59289 58.631461 
L 595.182163 55.8 
L 596.347126 61.462921 
L 596.922955 55.8 
L 598.06164 61.462921 
L 598.624625 55.8 
L 599.183455 61.462921 
L 599.738192 64.294382 
L 600.288893 55.8 
L 601.917367 55.8 
L 602.452501 61.462921 
L 602.98388 58.631461 
L 603.511556 304.968539 
L 604.035579 61.462921 
L 604.556002 58.631461 
L 605.072871 58.631461 
L 605.586237 55.8 
L 606.096146 67.125843 
L 606.602643 55.8 
L 607.105776 58.631461 
L 607.605587 69.957303 
L 608.102121 55.8 
L 610.056323 55.8 
L 610.537094 67.125843 
L 611.014831 58.631461 
L 611.489573 61.462921 
L 611.961358 55.8 
L 612.430221 61.462921 
L 612.896199 55.8 
L 613.359326 55.8 
L 613.819638 58.631461 
L 614.277169 64.294382 
L 614.731952 58.631461 
L 615.18402 55.8 
L 615.633405 61.462921 
L 616.524252 55.8 
L 616.965776 55.8 
L 617.40474 58.631461 
L 617.841175 55.8 
L 619.135585 55.8 
L 619.562184 64.294382 
L 619.986393 55.8 
L 620.408239 58.631461 
L 620.827748 55.8 
L 621.244945 61.462921 
L 621.659856 55.8 
L 622.072507 58.631461 
L 622.48292 55.8 
L 623.297134 55.8 
L 623.700981 61.462921 
L 624.102685 55.8 
L 624.50227 58.631461 
L 624.899757 58.631461 
L 625.295169 194.541573 
L 625.688526 64.294382 
L 626.079851 55.8 
L 626.469164 55.8 
L 626.856485 67.125843 
L 627.625234 55.8 
L 628.006701 58.631461 
L 628.386257 55.8 
L 628.763919 64.294382 
L 629.139707 55.8 
L 629.885734 55.8 
L 630.256009 64.294382 
L 630.624483 55.8 
L 630.991172 61.462921 
L 631.356094 55.8 
L 631.719265 55.8 
L 632.080703 69.957303 
L 632.440424 61.462921 
L 632.798445 55.8 
L 633.15478 58.631461 
L 633.509446 58.631461 
L 633.862459 55.8 
L 634.213834 58.631461 
L 634.563586 55.8 
L 634.91173 61.462921 
L 635.603252 55.8 
L 636.288516 55.8 
L 636.628836 58.631461 
L 637.304922 58.631461 
L 637.640715 55.8 
L 637.975025 61.462921 
L 638.307866 55.8 
L 638.96919 55.8 
L 639.297699 58.631461 
L 639.624788 55.8 
L 640.274759 55.8 
L 640.597664 58.631461 
L 640.919198 64.294382 
L 641.239372 55.8 
L 641.558199 61.462921 
L 641.875688 55.8 
L 642.191852 58.631461 
L 642.506701 302.137079 
L 643.44347 273.822472 
L 643.753168 287.979775 
L 644.061605 287.979775 
L 644.36879 290.811236 
L 644.674735 287.979775 
L 644.979448 290.811236 
L 645.28294 290.811236 
L 645.58522 262.496629 
L 645.58522 262.496629 
" clip-path="url(#pc091e0c0d1)" style="fill: none; stroke: #8c564b; stroke-width: 1.5; stroke-linecap: square"/>
   </g>
   <g id="line2d_25">
    <path d="M 138.436364 270.991011 
L 186.86813 279.485393 
L 235.299897 273.822472 
L 283.731663 276.653933 
L 332.16343 270.991011 
L 349.060113 270.991011 
L 362.865708 285.148315 
L 374.538173 296.474157 
L 384.649322 203.035955 
L 393.567987 58.631461 
L 401.546005 55.8 
L 415.351601 55.8 
L 421.412525 58.631461 
L 427.024065 55.8 
L 494.211671 55.8 
L 496.406641 58.631461 
L 498.539771 55.8 
L 508.387542 55.8 
L 510.212236 61.462921 
L 511.993992 55.8 
L 513.734784 58.631461 
L 515.436455 55.8 
L 524.91395 55.8 
L 526.38431 61.462921 
L 527.82666 55.8 
L 529.24205 55.8 
L 530.631468 58.631461 
L 531.995849 58.631461 
L 533.336081 55.8 
L 534.653004 55.8 
L 535.947414 58.631461 
L 537.220068 58.631461 
L 538.471686 55.8 
L 544.437063 55.8 
L 545.575748 58.631461 
L 546.697563 55.8 
L 547.803001 58.631461 
L 548.892533 55.8 
L 551.025663 55.8 
L 552.070109 58.631461 
L 553.100345 55.8 
L 555.119695 55.8 
L 556.109528 58.631461 
L 557.086588 55.8 
L 558.051202 58.631461 
L 559.003681 55.8 
L 560.873434 55.8 
L 561.791277 64.294382 
L 562.698128 55.8 
L 563.594247 64.294382 
L 564.479884 61.462921 
L 565.355283 55.8 
L 580.312553 55.8 
L 581.023554 61.462921 
L 581.727942 55.8 
L 582.425838 55.8 
L 583.11736 61.462921 
L 584.481741 55.8 
L 587.138896 55.8 
L 587.788867 58.631461 
L 588.433306 55.8 
L 590.334355 55.8 
L 590.957578 58.631461 
L 591.575713 58.631461 
L 592.188843 55.8 
L 593.400407 55.8 
L 593.998996 61.462921 
L 594.59289 55.8 
L 608.59542 55.8 
L 609.085526 58.631461 
L 609.57248 55.8 
L 610.537094 55.8 
L 611.014831 58.631461 
L 611.489573 55.8 
L 617.841175 55.8 
L 618.275108 58.631461 
L 618.706569 254.002247 
L 619.135585 299.305618 
L 619.562184 55.8 
L 619.986393 67.125843 
L 620.408239 55.8 
L 621.244945 55.8 
L 621.659856 61.462921 
L 622.48292 55.8 
L 622.891121 58.631461 
L 623.297134 69.957303 
L 623.700981 55.8 
L 624.102685 55.8 
L 624.50227 58.631461 
L 624.899757 55.8 
L 625.295169 58.631461 
L 625.688526 55.8 
L 626.079851 67.125843 
L 626.469164 55.8 
L 626.856485 55.8 
L 627.241835 61.462921 
L 627.625234 61.462921 
L 628.006701 58.631461 
L 628.386257 58.631461 
L 628.763919 55.8 
L 629.139707 55.8 
L 629.513639 58.631461 
L 629.885734 69.957303 
L 630.256009 58.631461 
L 630.624483 55.8 
L 631.356094 55.8 
L 631.719265 61.462921 
L 632.080703 55.8 
L 632.798445 55.8 
L 633.15478 61.462921 
L 633.509446 61.462921 
L 633.862459 67.125843 
L 634.213834 58.631461 
L 634.563586 64.294382 
L 634.91173 61.462921 
L 635.25828 55.8 
L 636.288516 55.8 
L 636.628836 58.631461 
L 636.967634 58.631461 
L 637.304922 55.8 
L 637.640715 55.8 
L 637.975025 58.631461 
L 638.307866 58.631461 
L 638.63925 55.8 
L 639.297699 55.8 
L 639.624788 61.462921 
L 639.950471 61.462921 
L 640.274759 55.8 
L 640.597664 55.8 
L 640.919198 58.631461 
L 641.239372 58.631461 
L 641.558199 64.294382 
L 641.875688 64.294382 
L 642.191852 55.8 
L 642.506701 58.631461 
L 642.820247 55.8 
L 643.1325 55.8 
L 643.44347 58.631461 
L 643.753168 55.8 
L 644.061605 61.462921 
L 644.36879 58.631461 
L 644.979448 58.631461 
L 645.28294 55.8 
L 645.58522 55.8 
L 645.886299 64.294382 
L 646.186185 55.8 
L 646.484888 58.631461 
L 646.782417 55.8 
L 647.078782 61.462921 
L 647.373992 55.8 
L 647.668055 58.631461 
L 647.96098 55.8 
L 648.252777 58.631461 
L 648.543453 55.8 
L 649.695128 55.8 
L 649.98033 58.631461 
L 650.547532 58.631461 
L 650.829548 55.8 
L 651.110517 55.8 
L 651.390448 64.294382 
L 651.669348 55.8 
L 651.947224 55.8 
L 652.224084 58.631461 
L 652.499935 55.8 
L 652.774785 61.462921 
L 653.048641 58.631461 
L 653.5934 58.631461 
L 653.864317 55.8 
L 654.134268 55.8 
L 654.40326 58.631461 
L 654.671299 64.294382 
L 654.938393 55.8 
L 655.204549 55.8 
L 655.469772 64.294382 
L 655.734069 55.8 
L 655.997448 61.462921 
L 656.259913 64.294382 
L 656.521471 61.462921 
L 656.78213 61.462921 
L 657.041894 55.8 
L 657.558763 55.8 
L 657.815881 58.631461 
L 658.072129 69.957303 
L 658.327513 55.8 
L 658.83571 55.8 
L 659.088535 58.631461 
L 659.340519 58.631461 
L 659.591668 55.8 
L 660.091479 55.8 
L 660.340153 61.462921 
L 660.588013 55.8 
L 661.081312 55.8 
L 661.326762 58.631461 
L 661.571418 58.631461 
L 661.815287 55.8 
L 662.542215 55.8 
L 662.782982 58.631461 
L 663.262231 58.631461 
L 663.500723 64.294382 
L 663.738467 58.631461 
L 663.975466 55.8 
L 664.44725 55.8 
L 664.682044 61.462921 
L 665.14946 55.8 
L 665.845218 55.8 
L 666.075724 58.631461 
L 666.305531 64.294382 
L 666.534642 55.8 
L 667.444216 55.8 
L 667.894938 61.462921 
L 668.119297 55.8 
L 668.342993 55.8 
L 668.566031 67.125843 
L 668.788413 55.8 
L 669.010144 55.8 
L 669.451668 61.462921 
L 669.671469 67.125843 
L 669.890633 55.8 
L 670.327067 55.8 
L 670.761 61.462921 
L 670.977038 55.8 
L 671.192461 61.462921 
L 671.407273 55.8 
L 671.621477 61.462921 
L 671.835077 58.631461 
L 672.048076 64.294382 
L 672.260477 55.8 
L 672.472285 55.8 
L 672.683502 67.125843 
L 672.894131 58.631461 
L 673.104176 55.8 
L 673.31364 58.631461 
L 673.730837 58.631461 
L 673.938577 55.8 
L 674.145748 55.8 
L 674.352355 254.002247 
L 674.558399 293.642697 
L 674.763884 58.631461 
L 675.173188 58.631461 
L 675.377014 67.125843 
L 675.783026 55.8 
L 675.985219 64.294382 
L 676.186873 64.294382 
L 676.387992 55.8 
L 676.788633 55.8 
L 676.988162 58.631461 
L 677.187167 55.8 
L 677.385649 55.8 
L 677.583613 61.462921 
L 677.781061 55.8 
L 677.977995 67.125843 
L 678.174418 55.8 
L 678.370334 61.462921 
L 678.565743 55.8 
L 678.76065 58.631461 
L 679.148964 58.631461 
L 679.342377 55.8 
L 679.535297 58.631461 
L 679.919669 58.631461 
L 680.111126 55.8 
L 680.872149 55.8 
L 681.061215 58.631461 
L 681.249811 58.631461 
L 681.437938 55.8 
L 681.625599 58.631461 
L 681.812796 58.631461 
L 681.999531 55.8 
L 682.185807 61.462921 
L 682.371626 55.8 
L 682.55699 55.8 
L 682.741902 58.631461 
L 682.926362 55.8 
L 683.110375 55.8 
L 683.293941 58.631461 
L 683.477064 55.8 
L 683.659745 58.631461 
L 683.841986 58.631461 
L 684.023789 55.8 
L 684.386092 55.8 
L 684.74667 64.294382 
L 684.926317 55.8 
L 685.284337 55.8 
L 685.462714 61.462921 
L 685.640672 58.631461 
L 685.818213 58.631461 
L 685.995339 55.8 
L 686.172051 55.8 
L 686.348351 67.125843 
L 686.524243 55.8 
L 686.699726 61.462921 
L 686.874804 61.462921 
L 687.22375 55.8 
L 687.397622 64.294382 
L 687.571095 55.8 
L 687.744172 64.294382 
L 687.916855 58.631461 
L 688.089144 64.294382 
L 688.261042 58.631461 
L 688.432551 58.631461 
L 688.603672 55.8 
L 688.944759 55.8 
L 689.114728 67.125843 
L 689.453526 58.631461 
L 689.622358 55.8 
L 689.958897 55.8 
L 690.126607 67.125843 
L 690.460917 58.631461 
L 690.793758 64.294382 
L 690.959631 55.8 
L 691.125142 55.8 
L 691.290292 58.631461 
L 691.455082 55.8 
L 691.619514 58.631461 
L 691.783591 58.631461 
L 691.947312 69.957303 
L 692.436363 55.8 
L 692.598681 55.8 
L 692.922276 67.125843 
L 693.083556 55.8 
L 693.244494 58.631461 
L 693.725265 58.631461 
L 693.884846 67.125843 
L 694.203002 55.8 
L 694.36158 55.8 
L 694.519827 58.631461 
L 694.677744 55.8 
L 695.306139 55.8 
L 695.462426 58.631461 
L 695.618392 55.8 
L 695.774036 55.8 
L 696.084369 67.125843 
L 696.23906 55.8 
L 696.547497 61.462921 
L 696.701246 55.8 
L 696.854683 61.462921 
L 697.007809 55.8 
L 697.160627 67.125843 
L 697.46534 55.8 
L 697.617238 58.631461 
L 697.768832 64.294382 
L 697.920123 55.8 
L 698.071112 64.294382 
L 698.221801 64.294382 
L 698.372191 55.8 
L 698.522282 64.294382 
L 698.821576 55.8 
L 699.119691 61.462921 
L 699.26831 61.462921 
L 699.416637 55.8 
L 699.712423 55.8 
L 699.859884 58.631461 
L 700.007058 58.631461 
L 700.153947 61.462921 
L 700.300551 61.462921 
L 700.592911 55.8 
L 701.029346 55.8 
L 701.31891 61.462921 
L 701.607372 55.8 
L 701.751192 58.631461 
L 701.894739 58.631461 
L 702.038015 69.957303 
L 702.18102 58.631461 
L 702.323755 69.957303 
L 702.466222 55.8 
L 702.892022 55.8 
L 703.033425 58.631461 
L 703.174564 55.8 
L 703.456055 55.8 
L 703.59641 58.631461 
L 703.87634 58.631461 
L 704.015918 55.8 
L 704.709976 55.8 
L 704.848027 61.462921 
L 705.123377 55.8 
L 705.397729 55.8 
L 705.534533 64.294382 
L 705.671091 55.8 
L 705.807403 64.294382 
L 705.943469 55.8 
L 706.079292 262.496629 
L 706.214872 194.541573 
L 706.350209 61.462921 
L 706.485305 55.8 
L 706.62016 55.8 
L 706.754775 64.294382 
L 706.889152 55.8 
L 707.02329 55.8 
L 707.157191 61.462921 
L 707.290856 55.8 
L 707.424286 58.631461 
L 707.55748 55.8 
L 707.690441 67.125843 
L 707.955664 58.631461 
L 708.48334 58.631461 
L 708.614686 55.8 
L 709.007364 55.8 
L 709.137805 58.631461 
L 709.268022 58.631461 
L 709.398015 69.957303 
L 709.527786 55.8 
L 709.657334 55.8 
L 709.786662 64.294382 
L 709.915768 55.8 
L 710.044656 61.462921 
L 710.173324 58.631461 
L 710.301773 61.462921 
L 710.430006 55.8 
L 710.813405 55.8 
L 710.940774 61.462921 
L 711.06793 55.8 
L 711.194872 64.294382 
L 711.321602 61.462921 
L 711.44812 67.125843 
L 711.574428 58.631461 
L 711.700524 58.631461 
L 711.826412 67.125843 
L 711.95209 64.294382 
L 712.07756 55.8 
L 712.327878 61.462921 
L 712.452727 55.8 
L 712.577371 69.957303 
L 712.826045 55.8 
L 712.950076 58.631461 
L 713.073905 55.8 
L 713.197531 64.294382 
L 713.320956 55.8 
L 713.44418 58.631461 
L 713.567204 58.631461 
L 713.690028 55.8 
L 713.812654 55.8 
L 714.05731 67.125843 
L 714.301179 58.631461 
L 714.422819 58.631461 
L 714.544264 55.8 
L 714.665515 72.788764 
L 714.907436 58.631461 
L 715.028107 55.8 
L 715.148586 58.631461 
L 715.268874 55.8 
L 715.388971 55.8 
L 715.508878 58.631461 
L 715.628595 58.631461 
L 715.748123 55.8 
L 715.867463 67.125843 
L 716.10558 58.631461 
L 716.342951 58.631461 
L 716.461358 61.462921 
L 716.57958 58.631461 
L 716.697617 61.462921 
L 716.815471 55.8 
L 716.933142 64.294382 
L 717.05063 55.8 
L 717.518769 55.8 
L 717.635352 69.957303 
L 717.751757 55.8 
L 717.98403 69.957303 
L 718.099901 55.8 
L 718.215594 55.8 
L 718.33111 58.631461 
L 718.446451 67.125843 
L 718.676607 55.8 
L 718.791423 61.462921 
L 718.906065 55.8 
L 719.248954 55.8 
L 719.362906 58.631461 
L 719.476686 55.8 
L 719.703737 61.462921 
L 719.930108 55.8 
L 720.04304 58.631461 
L 720.155804 55.8 
L 720.493093 64.294382 
L 720.605189 55.8 
L 720.71712 55.8 
L 720.828886 58.631461 
L 720.940486 55.8 
L 721.274305 55.8 
L 721.496036 67.125843 
L 721.71712 58.631461 
L 721.93756 69.957303 
L 722.157361 58.631461 
L 722.267022 55.8 
L 722.376525 61.462921 
L 722.485869 55.8 
L 722.595056 69.957303 
L 722.704086 55.8 
L 722.921676 61.462921 
L 723.030236 58.631461 
L 723.138642 64.294382 
L 723.354988 55.8 
L 723.46293 55.8 
L 723.570718 61.462921 
L 723.785835 58.631461 
L 723.893165 64.294382 
L 724.000343 58.631461 
L 724.107369 61.462921 
L 724.427543 55.8 
L 724.852347 55.8 
L 724.958177 61.462921 
L 725.063859 58.631461 
L 725.169394 61.462921 
L 725.380023 55.8 
L 725.485118 58.631461 
L 725.590068 69.957303 
L 725.904047 55.8 
L 726.008418 61.462921 
L 726.112645 58.631461 
L 726.216729 64.294382 
L 726.32067 55.8 
L 726.424469 61.462921 
L 726.528126 55.8 
L 726.63164 61.462921 
L 726.838247 55.8 
L 727.147103 55.8 
L 727.249776 58.631461 
L 727.352309 55.8 
L 727.454704 61.462921 
L 727.65908 55.8 
L 727.964613 55.8 
L 728.167619 61.462921 
L 728.268918 55.8 
L 728.370082 307.8 
L 728.672765 58.631461 
L 728.773391 58.631461 
L 728.873884 55.8 
L 729.07447 61.462921 
L 729.274526 55.8 
L 729.573622 55.8 
L 729.772365 67.125843 
L 729.970588 58.631461 
L 730.168294 55.8 
L 730.266953 55.8 
L 730.365484 58.631461 
L 730.562163 55.8 
L 730.758331 55.8 
L 730.856226 67.125843 
L 731.051635 58.631461 
L 731.149151 55.8 
L 731.343807 61.462921 
L 731.537964 55.8 
L 731.634856 58.631461 
L 731.731624 55.8 
L 731.828269 67.125843 
L 731.924791 55.8 
L 732.021189 67.125843 
L 732.117465 58.631461 
L 732.309651 64.294382 
L 732.50135 55.8 
L 732.597018 55.8 
L 732.692565 72.788764 
L 732.883299 55.8 
L 733.073553 55.8 
L 733.358041 61.462921 
L 733.452633 58.631461 
L 733.547108 61.462921 
L 733.641464 55.8 
L 733.829825 61.462921 
L 733.92383 72.788764 
L 734.111491 55.8 
L 734.298688 61.462921 
L 734.578619 55.8 
L 734.764666 55.8 
L 734.950257 61.462921 
L 735.135394 58.631461 
L 735.227794 58.631461 
L 735.412254 55.8 
L 735.504317 61.462921 
L 735.596267 55.8 
L 735.688106 58.631461 
L 735.87145 55.8 
L 735.962956 58.631461 
L 736.145637 55.8 
L 736.236812 69.957303 
L 736.327878 67.125843 
L 736.509681 55.8 
L 736.60042 58.631461 
L 736.781571 55.8 
L 736.96229 61.462921 
L 737.052488 55.8 
L 737.142578 58.631461 
L 737.322438 55.8 
L 737.501873 61.462921 
L 737.680882 55.8 
L 737.770229 55.8 
L 737.85947 58.631461 
L 737.948606 69.957303 
L 738.39272 58.631461 
L 738.481231 67.125843 
L 738.569638 55.8 
L 738.657943 58.631461 
L 738.746145 55.8 
L 738.834244 58.631461 
L 739.010135 55.8 
L 739.185618 64.294382 
L 739.360696 58.631461 
L 739.448084 78.451685 
L 739.53537 58.631461 
L 739.622556 61.462921 
L 739.709642 55.8 
L 739.796628 67.125843 
L 739.9703 55.8 
L 740.143575 64.294382 
L 740.316455 58.631461 
L 740.48894 55.8 
L 740.575036 64.294382 
L 740.661034 61.462921 
L 740.746934 64.294382 
L 741.089564 55.8 
L 741.345523 55.8 
L 741.515683 58.631461 
L 741.60062 58.631461 
L 741.770208 55.8 
L 741.939418 55.8 
L 742.023881 67.125843 
L 742.192525 55.8 
L 742.360794 55.8 
L 742.444789 58.631461 
L 742.52869 55.8 
L 742.696215 61.462921 
L 742.779839 55.8 
L 742.86337 61.462921 
L 743.030157 55.8 
L 743.113412 67.125843 
L 743.196577 55.8 
L 743.27965 61.462921 
L 743.362632 55.8 
L 743.445523 64.294382 
L 743.611034 55.8 
L 744.269483 55.8 
L 744.351388 58.631461 
L 744.514932 55.8 
L 744.840966 55.8 
L 744.922255 61.462921 
L 745.084573 55.8 
L 745.165601 55.8 
L 745.246543 58.631461 
L 745.408168 55.8 
L 745.730386 293.642697 
L 745.810727 279.485393 
L 746.051239 290.811236 
L 746.13124 293.642697 
L 746.211157 276.653933 
L 746.290989 296.474157 
L 746.529983 276.653933 
L 746.688894 287.979775 
L 746.768225 290.811236 
L 746.847472 287.979775 
L 747.005719 293.642697 
L 747.084719 287.979775 
L 747.163636 259.665169 
L 747.163636 259.665169 
" clip-path="url(#pc091e0c0d1)" style="fill: none; stroke: #e377c2; stroke-width: 1.5; stroke-linecap: square"/>
   </g>
   <g id="patch_3">
    <path d="M 108 320.4 
L 108 43.2 
" style="fill: none; stroke: #000000; stroke-width: 0.8; stroke-linejoin: miter; stroke-linecap: square"/>
   </g>
   <g id="patch_4">
    <path d="M 777.6 320.4 
L 777.6 43.2 
" style="fill: none; stroke: #000000; stroke-width: 0.8; stroke-linejoin: miter; stroke-linecap: square"/>
   </g>
   <g id="patch_5">
    <path d="M 108 320.4 
L 777.6 320.4 
" style="fill: none; stroke: #000000; stroke-width: 0.8; stroke-linejoin: miter; stroke-linecap: square"/>
   </g>
   <g id="patch_6">
    <path d="M 108 43.2 
L 777.6 43.2 
" style="fill: none; stroke: #000000; stroke-width: 0.8; stroke-linejoin: miter; stroke-linecap: square"/>
   </g>
   <g id="legend_1">
    <g id="patch_7">
     <path d="M 115 153.946875 
L 199.86875 153.946875 
Q 201.86875 153.946875 201.86875 151.946875 
L 201.86875 50.2 
Q 201.86875 48.2 199.86875 48.2 
L 115 48.2 
Q 113 48.2 113 50.2 
L 113 151.946875 
Q 113 153.946875 115 153.946875 
z
" style="fill: #ffffff; opacity: 0.8; stroke: #cccccc; stroke-linejoin: miter"/>
    </g>
    <g id="line2d_26">
     <path d="M 117 56.298437 
L 127 56.298437 
L 137 56.298437 
" style="fill: none; stroke: #1f77b4; stroke-width: 1.5; stroke-linecap: square"/>
    </g>
    <g id="text_12">
     <!-- N=10^2 -->
     <g transform="translate(145 59.798437) scale(0.1 -0.1)">
      <defs>
       <path id="DejaVuSans-4e" d="M 628 4666 
L 1478 4666 
L 3547 763 
L 3547 4666 
L 4159 4666 
L 4159 0 
L 3309 0 
L 1241 3903 
L 1241 0 
L 628 0 
L 628 4666 
z
" transform="scale(0.015625)"/>
       <path id="DejaVuSans-3d" d="M 678 2906 
L 4684 2906 
L 4684 2381 
L 678 2381 
L 678 2906 
z
M 678 1631 
L 4684 1631 
L 4684 1100 
L 678 1100 
L 678 1631 
z
" transform="scale(0.015625)"/>
       <path id="DejaVuSans-5e" d="M 2988 4666 
L 4684 2925 
L 4056 2925 
L 2681 4159 
L 1306 2925 
L 678 2925 
L 2375 4666 
L 2988 4666 
z
" transform="scale(0.015625)"/>
      </defs>
      <use xlink:href="#DejaVuSans-4e"/>
      <use xlink:href="#DejaVuSans-3d" x="74.804688"/>
      <use xlink:href="#DejaVuSans-31" x="158.59375"/>
      <use xlink:href="#DejaVuSans-30" x="222.216797"/>
      <use xlink:href="#DejaVuSans-5e" x="285.839844"/>
      <use xlink:href="#DejaVuSans-32" x="369.628906"/>
     </g>
    </g>
    <g id="line2d_27">
     <path d="M 117 70.976562 
L 127 70.976562 
L 137 70.976562 
" style="fill: none; stroke: #ff7f0e; stroke-width: 1.5; stroke-linecap: square"/>
    </g>
    <g id="text_13">
     <!-- N=10^3 -->
     <g transform="translate(145 74.476562) scale(0.1 -0.1)">
      <defs>
       <path id="DejaVuSans-33" d="M 2597 2516 
Q 3050 2419 3304 2112 
Q 3559 1806 3559 1356 
Q 3559 666 3084 287 
Q 2609 -91 1734 -91 
Q 1441 -91 1130 -33 
Q 819 25 488 141 
L 488 750 
Q 750 597 1062 519 
Q 1375 441 1716 441 
Q 2309 441 2620 675 
Q 2931 909 2931 1356 
Q 2931 1769 2642 2001 
Q 2353 2234 1838 2234 
L 1294 2234 
L 1294 2753 
L 1863 2753 
Q 2328 2753 2575 2939 
Q 2822 3125 2822 3475 
Q 2822 3834 2567 4026 
Q 2313 4219 1838 4219 
Q 1578 4219 1281 4162 
Q 984 4106 628 3988 
L 628 4550 
Q 988 4650 1302 4700 
Q 1616 4750 1894 4750 
Q 2613 4750 3031 4423 
Q 3450 4097 3450 3541 
Q 3450 3153 3228 2886 
Q 3006 2619 2597 2516 
z
" transform="scale(0.015625)"/>
      </defs>
      <use xlink:href="#DejaVuSans-4e"/>
      <use xlink:href="#DejaVuSans-3d" x="74.804688"/>
      <use xlink:href="#DejaVuSans-31" x="158.59375"/>
      <use xlink:href="#DejaVuSans-30" x="222.216797"/>
      <use xlink:href="#DejaVuSans-5e" x="285.839844"/>
      <use xlink:href="#DejaVuSans-33" x="369.628906"/>
     </g>
    </g>
    <g id="line2d_28">
     <path d="M 117 85.654687 
L 127 85.654687 
L 137 85.654687 
" style="fill: none; stroke: #2ca02c; stroke-width: 1.5; stroke-linecap: square"/>
    </g>
    <g id="text_14">
     <!-- N=10^4 -->
     <g transform="translate(145 89.154687) scale(0.1 -0.1)">
      <use xlink:href="#DejaVuSans-4e"/>
      <use xlink:href="#DejaVuSans-3d" x="74.804688"/>
      <use xlink:href="#DejaVuSans-31" x="158.59375"/>
      <use xlink:href="#DejaVuSans-30" x="222.216797"/>
      <use xlink:href="#DejaVuSans-5e" x="285.839844"/>
      <use xlink:href="#DejaVuSans-34" x="369.628906"/>
     </g>
    </g>
    <g id="line2d_29">
     <path d="M 117 100.332812 
L 127 100.332812 
L 137 100.332812 
" style="fill: none; stroke: #d62728; stroke-width: 1.5; stroke-linecap: square"/>
    </g>
    <g id="text_15">
     <!-- N=10^5 -->
     <g transform="translate(145 103.832812) scale(0.1 -0.1)">
      <defs>
       <path id="DejaVuSans-35" d="M 691 4666 
L 3169 4666 
L 3169 4134 
L 1269 4134 
L 1269 2991 
Q 1406 3038 1543 3061 
Q 1681 3084 1819 3084 
Q 2600 3084 3056 2656 
Q 3513 2228 3513 1497 
Q 3513 744 3044 326 
Q 2575 -91 1722 -91 
Q 1428 -91 1123 -41 
Q 819 9 494 109 
L 494 744 
Q 775 591 1075 516 
Q 1375 441 1709 441 
Q 2250 441 2565 725 
Q 2881 1009 2881 1497 
Q 2881 1984 2565 2268 
Q 2250 2553 1709 2553 
Q 1456 2553 1204 2497 
Q 953 2441 691 2322 
L 691 4666 
z
" transform="scale(0.015625)"/>
      </defs>
      <use xlink:href="#DejaVuSans-4e"/>
      <use xlink:href="#DejaVuSans-3d" x="74.804688"/>
      <use xlink:href="#DejaVuSans-31" x="158.59375"/>
      <use xlink:href="#DejaVuSans-30" x="222.216797"/>
      <use xlink:href="#DejaVuSans-5e" x="285.839844"/>
      <use xlink:href="#DejaVuSans-35" x="369.628906"/>
     </g>
    </g>
    <g id="line2d_30">
     <path d="M 117 115.010937 
L 127 115.010937 
L 137 115.010937 
" style="fill: none; stroke: #9467bd; stroke-width: 1.5; stroke-linecap: square"/>
    </g>
    <g id="text_16">
     <!-- N=10^6 -->
     <g transform="translate(145 118.510937) scale(0.1 -0.1)">
      <use xlink:href="#DejaVuSans-4e"/>
      <use xlink:href="#DejaVuSans-3d" x="74.804688"/>
      <use xlink:href="#DejaVuSans-31" x="158.59375"/>
      <use xlink:href="#DejaVuSans-30" x="222.216797"/>
      <use xlink:href="#DejaVuSans-5e" x="285.839844"/>
      <use xlink:href="#DejaVuSans-36" x="369.628906"/>
     </g>
    </g>
    <g id="line2d_31">
     <path d="M 117 129.689062 
L 127 129.689062 
L 137 129.689062 
" style="fill: none; stroke: #8c564b; stroke-width: 1.5; stroke-linecap: square"/>
    </g>
    <g id="text_17">
     <!-- N=10^6.2 -->
     <g transform="translate(145 133.189062) scale(0.1 -0.1)">
      <defs>
       <path id="DejaVuSans-2e" d="M 684 794 
L 1344 794 
L 1344 0 
L 684 0 
L 684 794 
z
" transform="scale(0.015625)"/>
      </defs>
      <use xlink:href="#DejaVuSans-4e"/>
      <use xlink:href="#DejaVuSans-3d" x="74.804688"/>
      <use xlink:href="#DejaVuSans-31" x="158.59375"/>
      <use xlink:href="#DejaVuSans-30" x="222.216797"/>
      <use xlink:href="#DejaVuSans-5e" x="285.839844"/>
      <use xlink:href="#DejaVuSans-36" x="369.628906"/>
      <use xlink:href="#DejaVuSans-2e" x="433.251953"/>
      <use xlink:href="#DejaVuSans-32" x="465.039062"/>
     </g>
    </g>
    <g id="line2d_32">
     <path d="M 117 144.367187 
L 127 144.367187 
L 137 144.367187 
" style="fill: none; stroke: #e377c2; stroke-width: 1.5; stroke-linecap: square"/>
    </g>
    <g id="text_18">
     <!-- N=10^6.5 -->
     <g transform="translate(145 147.867187) scale(0.1 -0.1)">
      <use xlink:href="#DejaVuSans-4e"/>
      <use xlink:href="#DejaVuSans-3d" x="74.804688"/>
      <use xlink:href="#DejaVuSans-31" x="158.59375"/>
      <use xlink:href="#DejaVuSans-30" x="222.216797"/>
      <use xlink:href="#DejaVuSans-5e" x="285.839844"/>
      <use xlink:href="#DejaVuSans-36" x="369.628906"/>
      <use xlink:href="#DejaVuSans-2e" x="433.251953"/>
      <use xlink:href="#DejaVuSans-35" x="465.039062"/>
     </g>
    </g>
   </g>
  </g>
  <g id="text_19">
   <!-- All Pairs | bonsai2_slowdust GPU Usage (%) -->
   <g transform="translate(302.050313 16.370625) scale(0.12 -0.12)">
    <defs>
     <path id="DejaVuSans-41" d="M 2188 4044 
L 1331 1722 
L 3047 1722 
L 2188 4044 
z
M 1831 4666 
L 2547 4666 
L 4325 0 
L 3669 0 
L 3244 1197 
L 1141 1197 
L 716 0 
L 50 0 
L 1831 4666 
z
" transform="scale(0.015625)"/>
     <path id="DejaVuSans-6c" d="M 603 4863 
L 1178 4863 
L 1178 0 
L 603 0 
L 603 4863 
z
" transform="scale(0.015625)"/>
     <path id="DejaVuSans-72" d="M 2631 2963 
Q 2534 3019 2420 3045 
Q 2306 3072 2169 3072 
Q 1681 3072 1420 2755 
Q 1159 2438 1159 1844 
L 1159 0 
L 581 0 
L 581 3500 
L 1159 3500 
L 1159 2956 
Q 1341 3275 1631 3429 
Q 1922 3584 2338 3584 
Q 2397 3584 2469 3576 
Q 2541 3569 2628 3553 
L 2631 2963 
z
" transform="scale(0.015625)"/>
     <path id="DejaVuSans-7c" d="M 1344 4891 
L 1344 -1509 
L 813 -1509 
L 813 4891 
L 1344 4891 
z
" transform="scale(0.015625)"/>
     <path id="DejaVuSans-62" d="M 3116 1747 
Q 3116 2381 2855 2742 
Q 2594 3103 2138 3103 
Q 1681 3103 1420 2742 
Q 1159 2381 1159 1747 
Q 1159 1113 1420 752 
Q 1681 391 2138 391 
Q 2594 391 2855 752 
Q 3116 1113 3116 1747 
z
M 1159 2969 
Q 1341 3281 1617 3432 
Q 1894 3584 2278 3584 
Q 2916 3584 3314 3078 
Q 3713 2572 3713 1747 
Q 3713 922 3314 415 
Q 2916 -91 2278 -91 
Q 1894 -91 1617 61 
Q 1341 213 1159 525 
L 1159 0 
L 581 0 
L 581 4863 
L 1159 4863 
L 1159 2969 
z
" transform="scale(0.015625)"/>
     <path id="DejaVuSans-6f" d="M 1959 3097 
Q 1497 3097 1228 2736 
Q 959 2375 959 1747 
Q 959 1119 1226 758 
Q 1494 397 1959 397 
Q 2419 397 2687 759 
Q 2956 1122 2956 1747 
Q 2956 2369 2687 2733 
Q 2419 3097 1959 3097 
z
M 1959 3584 
Q 2709 3584 3137 3096 
Q 3566 2609 3566 1747 
Q 3566 888 3137 398 
Q 2709 -91 1959 -91 
Q 1206 -91 779 398 
Q 353 888 353 1747 
Q 353 2609 779 3096 
Q 1206 3584 1959 3584 
z
" transform="scale(0.015625)"/>
     <path id="DejaVuSans-6e" d="M 3513 2113 
L 3513 0 
L 2938 0 
L 2938 2094 
Q 2938 2591 2744 2837 
Q 2550 3084 2163 3084 
Q 1697 3084 1428 2787 
Q 1159 2491 1159 1978 
L 1159 0 
L 581 0 
L 581 3500 
L 1159 3500 
L 1159 2956 
Q 1366 3272 1645 3428 
Q 1925 3584 2291 3584 
Q 2894 3584 3203 3211 
Q 3513 2838 3513 2113 
z
" transform="scale(0.015625)"/>
     <path id="DejaVuSans-5f" d="M 3263 -1063 
L 3263 -1509 
L -63 -1509 
L -63 -1063 
L 3263 -1063 
z
" transform="scale(0.015625)"/>
     <path id="DejaVuSans-77" d="M 269 3500 
L 844 3500 
L 1563 769 
L 2278 3500 
L 2956 3500 
L 3675 769 
L 4391 3500 
L 4966 3500 
L 4050 0 
L 3372 0 
L 2619 2869 
L 1863 0 
L 1184 0 
L 269 3500 
z
" transform="scale(0.015625)"/>
     <path id="DejaVuSans-64" d="M 2906 2969 
L 2906 4863 
L 3481 4863 
L 3481 0 
L 2906 0 
L 2906 525 
Q 2725 213 2448 61 
Q 2172 -91 1784 -91 
Q 1150 -91 751 415 
Q 353 922 353 1747 
Q 353 2572 751 3078 
Q 1150 3584 1784 3584 
Q 2172 3584 2448 3432 
Q 2725 3281 2906 2969 
z
M 947 1747 
Q 947 1113 1208 752 
Q 1469 391 1925 391 
Q 2381 391 2643 752 
Q 2906 1113 2906 1747 
Q 2906 2381 2643 2742 
Q 2381 3103 1925 3103 
Q 1469 3103 1208 2742 
Q 947 2381 947 1747 
z
" transform="scale(0.015625)"/>
     <path id="DejaVuSans-75" d="M 544 1381 
L 544 3500 
L 1119 3500 
L 1119 1403 
Q 1119 906 1312 657 
Q 1506 409 1894 409 
Q 2359 409 2629 706 
Q 2900 1003 2900 1516 
L 2900 3500 
L 3475 3500 
L 3475 0 
L 2900 0 
L 2900 538 
Q 2691 219 2414 64 
Q 2138 -91 1772 -91 
Q 1169 -91 856 284 
Q 544 659 544 1381 
z
M 1991 3584 
L 1991 3584 
z
" transform="scale(0.015625)"/>
    </defs>
    <use xlink:href="#DejaVuSans-41"/>
    <use xlink:href="#DejaVuSans-6c" x="68.408203"/>
    <use xlink:href="#DejaVuSans-6c" x="96.191406"/>
    <use xlink:href="#DejaVuSans-20" x="123.974609"/>
    <use xlink:href="#DejaVuSans-50" x="155.761719"/>
    <use xlink:href="#DejaVuSans-61" x="211.564453"/>
    <use xlink:href="#DejaVuSans-69" x="272.84375"/>
    <use xlink:href="#DejaVuSans-72" x="300.626953"/>
    <use xlink:href="#DejaVuSans-73" x="341.740234"/>
    <use xlink:href="#DejaVuSans-20" x="393.839844"/>
    <use xlink:href="#DejaVuSans-7c" x="425.626953"/>
    <use xlink:href="#DejaVuSans-20" x="459.318359"/>
    <use xlink:href="#DejaVuSans-62" x="491.105469"/>
    <use xlink:href="#DejaVuSans-6f" x="554.582031"/>
    <use xlink:href="#DejaVuSans-6e" x="615.763672"/>
    <use xlink:href="#DejaVuSans-73" x="679.142578"/>
    <use xlink:href="#DejaVuSans-61" x="731.242188"/>
    <use xlink:href="#DejaVuSans-69" x="792.521484"/>
    <use xlink:href="#DejaVuSans-32" x="820.304688"/>
    <use xlink:href="#DejaVuSans-5f" x="883.927734"/>
    <use xlink:href="#DejaVuSans-73" x="933.927734"/>
    <use xlink:href="#DejaVuSans-6c" x="986.027344"/>
    <use xlink:href="#DejaVuSans-6f" x="1013.810547"/>
    <use xlink:href="#DejaVuSans-77" x="1074.992188"/>
    <use xlink:href="#DejaVuSans-64" x="1156.779297"/>
    <use xlink:href="#DejaVuSans-75" x="1220.255859"/>
    <use xlink:href="#DejaVuSans-73" x="1283.634766"/>
    <use xlink:href="#DejaVuSans-74" x="1335.734375"/>
    <use xlink:href="#DejaVuSans-20" x="1374.943359"/>
    <use xlink:href="#DejaVuSans-47" x="1406.730469"/>
    <use xlink:href="#DejaVuSans-50" x="1484.220703"/>
    <use xlink:href="#DejaVuSans-55" x="1544.523438"/>
    <use xlink:href="#DejaVuSans-20" x="1617.716797"/>
    <use xlink:href="#DejaVuSans-55" x="1649.503906"/>
    <use xlink:href="#DejaVuSans-73" x="1722.697266"/>
    <use xlink:href="#DejaVuSans-61" x="1774.796875"/>
    <use xlink:href="#DejaVuSans-67" x="1836.076172"/>
    <use xlink:href="#DejaVuSans-65" x="1899.552734"/>
    <use xlink:href="#DejaVuSans-20" x="1961.076172"/>
    <use xlink:href="#DejaVuSans-28" x="1992.863281"/>
    <use xlink:href="#DejaVuSans-25" x="2031.876953"/>
    <use xlink:href="#DejaVuSans-29" x="2126.896484"/>
   </g>
  </g>
 </g>
 <defs>
  <clipPath id="pc091e0c0d1">
   <rect x="108" y="43.2" width="669.6" height="277.2"/>
  </clipPath>
 </defs>
</svg>
